<?xml version="1.0" encoding="UTF-8"?>
<!DOCTYPE svg PUBLIC "-//W3C//DTD SVG 1.1//EN" "http://www.w3.org/Graphics/SVG/1.1/DTD/svg11.dtd">
<!-- Creator: CorelDRAW 2019 (64 Bit) -->
<svg xmlns="http://www.w3.org/2000/svg" xml:space="preserve" width="75mm" height="75mm" version="1.1" style="shape-rendering:geometricPrecision; text-rendering:geometricPrecision; image-rendering:optimizeQuality; fill-rule:evenodd; clip-rule:evenodd"
viewBox="0 0 7500 7500"
 xmlns:xlink="http://www.w3.org/1999/xlink">
 <defs>
  <style type="text/css">
   <![CDATA[
    .str2 {stroke:#373435;stroke-width:20;stroke-miterlimit:22.9256}
    .str1 {stroke:#282829;stroke-width:20;stroke-miterlimit:22.9256}
    .str0 {stroke:#373435;stroke-width:20;stroke-miterlimit:22.9256}
    .fil0 {fill:none}
    .fil12 {fill:#FEFEFE}
    .fil5 {fill:#606062}
    .fil11 {fill:#4B4B4D}
    .fil4 {fill:#4B4B4D}
    .fil6 {fill:#373435}
    .fil3 {fill:#FDD1A1}
    .fil10 {fill:#847059}
    .fil2 {fill:#CB7246}
    .fil8 {fill:#889FAC}
    .fil7 {fill:#4E5A62}
    .fil1 {fill:#6B809B}
    .fil9 {fill:#5CA47A}
   ]]>
  </style>
   <clipPath id="id0">
    <rect x="-14383.33" y="35.37" width="8669.86" height="8669.86"/>
   </clipPath>
 </defs>
 <g id="Camada_x0020_1">
  <metadata id="CorelCorpID_0Corel-Layer"/>
  <g style="clip-path:url(#id0)">
   <image id="homem_x0020_sentado_x0020_no_x0020_pc.jpg" x="-14383.33" y="35.37" width="8669.86" height="8669.86" xlink:href="1_Images\1_ImgID1.png"/>
  </g>
  <g id="_1342898968512">
   <line class="fil0 str0" x1="-10048.4" y1="35.37" x2="-10048.4" y2= "35.37" />
  </g>
  <g id="_1344225461856">
   <line class="fil0 str0" x1="-10048.4" y1="35.37" x2="-10048.4" y2= "35.37" />
  </g>
  <path class="fil0 str1" d="M826.72 1791.19c-219.17,-106.5 -332.06,-344.62 -338.67,-714.38 58.71,-468.45 481.16,-664.69 1267.36,-588.72 107.55,-14.8 183.41,-81.82 227.58,-201.07 123.44,103.26 105.36,228.94 -54.24,377.04 93.85,145.44 147.22,269.36 160.13,371.75 -62.57,58.25 -93.86,87.37 -93.86,87.37 156.18,245.85 230.71,371.08 223.58,375.71 -35.07,37.6 -94.6,58.77 -178.6,63.5 10.36,35.01 28.88,61.91 55.56,80.7 -34.39,35.28 -51.59,52.92 -51.59,52.92 25.58,41.45 38.37,62.17 38.37,62.17 -52.33,38.03 -75.7,60.08 -70.12,66.15 45.9,63.82 69.27,107.92 70.12,132.29"/>
  <path class="fil0 str2" d="M2080.88 1946.19c-28.76,128.55 -180.86,143.06 -456.28,43.51 -109.17,-43.46 -213.68,-110.49 -313.54,-201.09"/>
  <path class="fil0 str2" d="M826.72 1791.19c53.64,12.36 106.62,15.92 158.94,10.67 75.31,130.12 133.1,264.86 173.37,404.2 209.74,136.33 486.67,199.84 830.81,190.51 -87.76,-125.33 -134.33,-240.82 -139.69,-346.47"/>
  <path class="fil0 str2" d="M1159.03 2206.06c-81.97,63.35 -106.19,175.81 -72.65,337.38"/>
  <path class="fil0 str2" d="M1214.75 1577.69c-119.78,124.72 -232.67,38.28 -338.66,-259.3 26.52,-200.88 138.53,-259.97 336.02,-177.27 24.62,50.2 34.32,83.71 29.1,100.54"/>
  <path class="fil0 str2" d="M1034.84 1254.89c75.52,-23 121.38,-2.71 137.58,60.86 -112.48,17.2 -116.89,59.54 -13.23,127"/>
  <path class="fil0 str2" d="M1770.38 1199.35c9.39,-70.74 64.08,-106.9 164.05,-108.48"/>
  <path class="fil0 str2" d="M1828.91 1112.97c76.04,143.32 101.39,136.48 76.05,-20.51"/>
  <path class="fil0 str2" d="M1233.26 1189.86c140.24,-237.51 376.04,-416.53 707.39,-537.05"/>
  <path class="fil0 str2" d="M1896.07 2232.61c106.61,-12.9 197.02,141.87 271.23,464.32"/>
  <path class="fil0 str2" d="M2128.8 2549.53c-396.57,65.19 -744.04,63.16 -1042.42,-6.09 -154.5,172.46 -248.39,381.51 -281.67,627.15"/>
  <path class="fil0 str2" d="M1020.88 2623.6c6.61,-548.97 -198.62,-760.87 -615.69,-635.7 -365.31,1207.83 -167.77,2327.02 592.63,3357.59 138.62,19.73 158.02,-123.14 58.19,-428.61 -80.79,-251.6 -60.51,-487.97 60.84,-709.11 91,-282.42 31.03,-511.73 -179.92,-687.92 -245.22,-476.77 -356.34,-908.93 -333.37,-1296.46"/>
  <path class="fil0 str2" d="M465.97 2313.35c-112.36,409.43 12.88,892.74 375.71,1449.92 68.29,114.28 64.76,301.25 -10.58,560.92 -33.55,235.68 -31.78,360.92 5.29,375.71 56.47,132.46 68.81,248.87 37.04,349.25"/>
  <path class="fil0 str2" d="M1910.58 2768.41c-365.69,-93.35 -612.63,1.9 -740.83,285.75"/>
  <path class="fil0 str2" d="M2667.29 3927.29c-77.14,-56.58 -142.4,-114.79 -195.79,-174.63 -56.03,-329.66 -157.43,-681.57 -304.2,-1055.73 -37.09,54.71 -55.63,82.06 -55.63,82.06 -61.31,-32.73 -111.52,-101.24 -150.61,-205.54"/>
  <path class="fil0 str2" d="M2111.67 2778.99c46.66,153.47 71.36,315.75 74.08,486.84"/>
  <path class="fil0 str2" d="M1553.39 2909.96c148.6,-71.12 294.57,-49.95 437.89,63.5 10.78,-18.93 12.54,-40.98 5.29,-66.14"/>
  <path class="fil0 str2" d="M1995.25 3071.35c107.8,214.75 238.33,419.37 391.59,613.84 -142.72,49.61 -215.92,111.35 -219.6,185.23 160.97,-47.17 243.87,-47.17 248.71,0 -134.97,39.75 -172.89,123.54 -113.77,251.36 78.73,41.5 155.46,-31.7 230.19,-219.61 301.84,26.12 611.4,91.38 928.69,195.8"/>
  <path class="fil0 str2" d="M3283.16 4043.3c106.09,-65.76 216.54,-112.8 331.36,-141.13"/>
  <path class="fil0 str2" d="M3446.72 4093.28c13.9,133.53 16.04,293.85 6.41,480.94 -468.29,16.59 -923.38,-23.98 -1365.27,-121.71 -310.55,-203.15 -606.89,-611.49 -889.03,-1225.01"/>
  <path class="fil0 str2" d="M3453.13 4574.22c170.73,55.96 342.71,65.23 515.92,27.8 57.82,-247.26 82.53,-447.46 74.13,-600.61 -249.8,-12.93 -448.62,17.69 -596.46,91.87"/>
  <path class="fil0 str2" d="M2230.76 4649.65c-441.22,260.05 -824.38,376.71 -1149.49,350 112.33,168.03 200.04,294.79 263.14,380.26"/>
  <path class="fil0 str2" d="M1273 5252.92c-112.43,66.44 -186.52,161.69 -222.25,285.75 131.85,213.16 882.39,312.82 2251.63,298.98"/>
  <path class="fil0 str2" d="M1145.61 5358.82c205.06,139.38 926.63,194.92 2164.71,166.62"/>
  <path class="fil0 str2" d="M1961.24 5800.21c-12.4,91.61 9.55,190.53 65.87,296.76 221.9,28.49 452.98,35.55 693.22,21.16 39.3,-54.72 56.04,-148.46 50.2,-281.24"/>
  <path class="fil0 str2" d="M2566.96 6124.43c-6.61,182.88 -3.99,345.71 7.85,488.5"/>
  <path class="fil0 str2" d="M2199.78 6114.67c12.2,175.31 26.08,336.11 41.66,482.38 115.91,29.73 227.03,35.02 333.37,15.88 40.62,7.11 63.56,18.57 68.8,34.39"/>
  <path class="fil0 str2" d="M2241.44 6597.05c-46.37,-1.91 -71.06,5.14 -74.09,21.17 -6.5,129.17 -1.21,235.89 15.88,320.15"/>
  <path class="fil0 str2" d="M2643.61 6647.32c9.46,298.29 3.29,461.45 -18.52,489.49 -201.22,9.02 -471.1,1.96 -809.63,-21.17 -7.15,-61.79 -7.15,-112.06 0,-150.81 138.69,-32.37 261.28,-41.19 367.77,-26.46 30.24,43.32 42.51,109.45 36.81,198.39"/>
  <path class="fil0 str2" d="M2183.23 6938.37c72.72,5.9 116.82,5.01 132.29,-2.65 -15.99,-52.64 -17.75,-109.08 -5.29,-169.33 86.29,-55.72 139.21,-31.03 158.75,74.08 -4.75,131.52 -17.1,206.49 -37.04,224.9 34.18,30.61 50.03,55.63 47.55,75.08 6.41,119.24 7.32,256.49 2.73,411.74"/>
  <path class="fil0 str2" d="M2220.04 7136.76c0.73,134.22 7.87,277.98 21.41,431.3"/>
  <path class="fil0 str2" d="M1408.67 5723.9c-8.86,26.68 -11.06,48.95 -6.61,66.8 49.7,32.96 126.87,57.66 231.51,74.09 16.7,-29.85 27.6,-62.49 32.7,-97.91"/>
  <path class="fil0 str2" d="M3302.38 5837.65c55.27,338.54 80,621.21 74.18,847.99"/>
  <path class="fil0 str2" d="M3310.32 5525.44c91.25,-10.58 155.66,50.72 193.22,183.89 69.37,267.22 184.02,618.23 343.96,1053.04"/>
  <path class="fil0 str2" d="M3937.74 4608.28c63.01,211.97 113.43,334.46 151.25,367.46 2.67,-84.75 0.03,-168.54 -7.94,-251.36 -47.07,-119.7 -68.23,-165.56 -63.5,-137.58 -32.33,10.15 -48.5,15.22 -48.5,15.22"/>
  <path class="fil0 str2" d="M4088.99 4975.74c629.72,199.52 1695.99,243.62 3198.82,132.29"/>
  <path class="fil0 str2" d="M4708.8 5105.25c97.78,406.46 136.82,838.66 117.1,1296.58"/>
  <path class="fil0 str2" d="M7287.81 5108.03c93.31,19.87 102.6,375.29 27.87,1066.25"/>
  <path class="fil0 str2" d="M3989.58 4509.6c175.38,-18.72 350.98,-105.46 526.8,-260.22 8.53,-46.55 35.87,-78.3 82.02,-95.25 239.09,48.52 387.26,69.69 444.5,63.5 65.27,-27.35 50.27,-48.52 -44.98,-63.5 -89.79,-16.88 -175.34,-30.99 -256.64,-42.33 -23.93,-41.69 -57.45,-49.63 -100.55,-23.82"/>
  <path class="fil0 str2" d="M4618.29 3999.34c55.41,-29.06 98.62,-25.54 129.65,10.58 124.88,6.36 243.06,27.53 354.54,63.5 49.32,46.95 38.11,79.92 -33.63,98.92"/>
  <path class="fil0 str2" d="M4631.54 3913.34c35.24,-39.67 72.29,-38.79 111.13,2.64 153.59,3.09 295.58,26.9 425.98,71.44 70.91,52.89 51.9,84.66 -57.01,95.31"/>
  <path class="fil0 str2" d="M4802.72 3918.28c67.91,-51.87 157.05,-86.37 267.4,-103.49 27.98,36.93 8.2,80.26 -59.35,129.97"/>
  <path class="fil0 str2" d="M4631.54 3913.34c-40.5,-44.24 -95.39,-39.17 -164.67,15.23 -164.06,21.67 -304.77,62.25 -422.15,121.75"/>
  <path class="fil0 str2" d="M4017.55 4586.8c104.98,-22.9 208.9,-37.69 311.76,-44.38 -19.04,-48.09 -28.08,-92.63 -27.13,-133.61"/>
  <path class="fil0 str2" d="M4374.29 4601.3c-23.17,-14.81 -38.16,-34.44 -44.98,-58.88 136.38,-44.34 196.36,-65.28 179.92,-62.83 297.11,-23.93 610.2,-9.81 939.27,42.34 -40.81,58.93 -59.33,110.96 -55.56,156.1 -326.83,-10.73 -666.38,-36.31 -1018.65,-76.73z"/>
  <path class="fil0 str2" d="M5392.94 4678.03c178.62,-17.4 287.98,-111.77 328.09,-283.1 -337.82,-757.93 -571.53,-1153.93 -701.13,-1188 -80.31,8.12 -147.34,22.23 -201.09,42.33"/>
  <path class="fil0 str2" d="M4993.44 3386.85c294.57,642.06 441.86,963.09 441.86,963.09"/>
  <path class="fil0 str2" d="M5554.37 4326.13c-308.22,-654.96 -466.09,-981.28 -473.61,-978.97"/>
  <path class="fil0 str2" d="M5231.57 4413.44c-60.32,-230.56 -93.7,-341.56 -100.13,-333.01"/>
  <path class="fil0 str2" d="M5091.77 3963.92c-15.7,-49.81 -23.55,-74.72 -23.55,-74.72"/>
  <path class="fil0 str2" d="M5030.49 3804.9c-65.27,-172.87 -97.9,-259.3 -97.9,-259.3"/>
  <path class="fil0 str2" d="M5072.82 4352.59c-19.95,-89.97 -29.92,-134.96 -29.92,-134.96"/>
  <path class="fil0 str2" d="M4890.25 4342.01c-23.54,-96.22 -36.39,-143.28 -38.55,-141.19"/>
  <path class="fil0 str2" d="M4665.36 4357.88c-28.52,-132.58 -42.78,-198.87 -42.78,-198.87"/>
  <path class="fil0 str2" d="M4511.9 4365.82c-18.37,-64.68 -24.76,-96.69 -19.18,-96.03"/>
  <path class="fil0 str2" d="M4720.92 4299.67c66.43,0 93.77,0 82.02,0"/>
  <path class="fil0 str2" d="M4755.32 4249.4c7.05,61.74 10.58,92.61 10.58,92.61"/>
  <path class="fil0 str2" d="M4972.28 4267.92c5.29,54.68 7.93,82.02 7.93,82.02"/>
  <path class="fil0 str2" d="M4927.3 4310.25c56.44,0 84.66,0 84.66,0"/>
  <path class="fil0 str2" d="M4559.52 4310.25c28.23,0 42.34,0 42.34,0"/>
  <path class="fil0 str2" d="M4401.86 3938.35c-34.24,-208.91 -51.36,-313.37 -51.36,-313.37"/>
  <path class="fil0 str2" d="M3614.52 3902.17c166.33,-59.47 325.23,-142.17 476.69,-248.09"/>
  <path class="fil0 str2" d="M3728.19 3857.41c-67.82,-158.72 -92.34,-333.22 -73.55,-523.48 -192.32,59.81 -364.3,113.61 -515.94,161.4 -2.4,43.73 -12.98,80.78 -31.75,111.13 -39.99,-12.08 -64.69,-30.6 -74.09,-55.57 -22.25,73.57 -54.88,129.13 -97.89,166.69 -48.55,-20.32 -56.49,-89.99 -23.82,-209.02 -190.87,-213.52 -417.24,-426.81 -679.1,-639.88"/>
  <path class="fil0 str2" d="M4081.05 4724.38c881.33,117.77 1966.47,134.52 3255.41,50.25"/>
  <path class="fil0 str2" d="M6452.74 4277.21c-42.19,194.16 -200.94,208.28 -476.25,42.34 -130.65,-298.33 -282.35,-585.84 -455.09,-862.55 80.63,-55.44 182.94,-73.08 306.92,-52.91"/>
  <path class="fil0 str2" d="M5844.2 3319.42c25.39,102.72 5.99,203.26 -58.21,301.62 62.34,149.25 141.72,290.37 238.12,423.34 83.73,-124.42 133.12,-258.48 148.17,-402.17"/>
  <path class="fil0 str2" d="M6452.74 4277.21c-85.36,-199.59 -184.46,-377.25 -297.28,-532.99"/>
  <path class="fil0 str2" d="M6172.28 3642.21c137.42,207.71 273.24,355.87 407.46,444.5 425.72,-1293.55 630.33,-2392.45 613.84,-3296.72"/>
  <path class="fil0 str2" d="M6579.74 4086.71c46.38,23.57 86.97,17.84 121.76,-17.18 468.08,-783.06 689.69,-1903.14 664.83,-3360.22 -735.9,-189.44 -1303.88,-282.93 -1703.93,-280.46"/>
  <path class="fil0 str2" d="M7193.58 789.99c-543.68,-153.9 -1064.66,-256.64 -1562.93,-308.22"/>
  <path class="fil0 str2" d="M5662.4 428.85c-65.64,37.7 -115.03,94.14 -148.17,169.33 -38.45,671.24 -82.11,1386.95 -130.98,2147.11 290.46,397.97 553.47,696.95 789.03,896.92"/>
  <path class="fil0 str2" d="M7023.71 948.77c6.35,664.95 -150.64,1594.53 -470.96,2788.72 -484.74,-444.82 -835.76,-820.53 -1053.05,-1127.13 76.7,-875.34 140.2,-1526.21 190.5,-1952.63 727.11,189.88 1171.62,286.89 1333.51,291.04z"/>
  <path class="fil0 str2" d="M6470.78 755.64c-42.33,25.08 -86.7,-54.24 -14.55,-54.24 4.15,11.97 30.43,21.12 30.43,43.66"/>
  <path class="fil0 str2" d="M6467.19 753.15c2.36,-1.37 12.7,-12.28 12.57,-13.89"/>
  <path class="fil0 str2" d="M6441.72 712.47c17.23,15.05 12.94,8.33 27.32,26.51 0.08,0.1 1.09,1.47 1.13,1.6"/>
  <path class="fil0 str2" d="M6432.13 713.79c-0.39,8.72 9.77,24.99 15.97,31.56 0.32,0.34 4.86,4.76 5.2,4.82 3.58,-4.26 12.24,-6.5 12.24,-12.24"/>
  <path class="fil0 str2" d="M6451.98 725.36c3.28,8.52 7.86,22.18 15.21,27.79"/>
  <path class="fil0 str2" d="M6435.44 711.47c7.01,4.58 21.26,26.82 31.75,35.45 0.42,0.34 0.53,0.76 0.66,1.27"/>
  <path class="fil0 str2" d="M6474.14 729.33c3.41,2.43 14.57,20.06 6.94,23.72 -5.39,2.58 -0.38,2.61 -9.92,5.06 -1.41,0.36 -1.77,1.98 -0.38,-2.47"/>
  <path class="fil0 str2" d="M3654.64 3333.93c116.19,-70.28 242.88,-103.05 380.07,-98.31 11.96,235.1 30.79,374.59 56.5,418.46"/>
  <path class="fil0 str2" d="M4039.93 3325.58c80.66,-18.85 157.42,-27.67 230.26,-26.46"/>
  <path class="fil0 str2" d="M4091.21 3654.08c44.86,-37.9 115.11,-59.21 210.73,-63.92 63.48,42.41 180.78,84.74 351.9,127 78.59,-50.12 69.77,-102.16 -26.46,-156.1 -92.38,-35.66 -169.99,-58.59 -232.83,-68.79"/>
  <path class="fil0 str2" d="M4473.52 3509.66c85.33,-57.04 291.23,-26.95 617.68,90.28"/>
  <path class="fil0 str2" d="M5045.36 3500.02c-106.54,-98.16 -328.77,-158.95 -666.69,-182.38"/>
  <path class="fil0 str2" d="M4550.26 3333.97c123.93,-24.11 277.33,5.89 460.2,89.98"/>
  <path class="fil0 str2" d="M4270.19 3299.12c31.29,-63.6 100.08,-100.65 206.38,-111.13 181.95,3.29 318.66,30.63 410.11,82.02 101.64,67.4 91.75,98.68 -29.67,93.86"/>
  <path class="fil0 str2" d="M3669.45 3325.21c-10.52,-166.42 -6.93,-271.26 10.78,-314.52 159.6,-138.6 715.23,-197.69 1666.9,-177.27 38.76,-5.64 69.56,-9.57 92.41,-11.79"/>
  <path class="fil0 str2" d="M3376.56 6685.64c164.46,92.01 321.44,117.59 470.94,76.73 421.62,-132.8 748.51,-273.31 980.68,-421.52"/>
  <path class="fil0 str2" d="M4825.9 6401.83c815.09,7.9 1645.01,-67.95 2489.78,-227.55"/>
  <path class="fil0 str2" d="M2751.59 4764.88c495.73,-9.25 915.54,117.75 1259.42,381 235.41,400.81 390.8,861.29 466.15,1381.43"/>
  <path class="fil0 str2" d="M3456.92 5599.95c73.14,-25.16 83.71,-3.85 31.71,63.94"/>
  <path class="fil0 str2" d="M4593.29 3887.49c-26.68,-71.96 -42.45,-138.3 -47.31,-199.02"/>
  <path class="fil0 str2" d="M4802.72 3918.28c-48.84,-201.13 -83.5,-343.73 -103.96,-427.81"/>
  <path class="fil0 str2" d="M6108.03 1547.54c-134.43,123.89 -236.73,208.55 -306.92,254 81.14,250.47 121.71,375.71 121.71,375.71"/>
  <path class="fil0 str2" d="M6356.74 1626.92c-250.47,409.22 -375.71,613.83 -375.71,613.83"/>
  <path class="fil0 str2" d="M6462.57 1738.04c77.61,264.59 116.42,396.88 116.42,396.88 -264.59,127 -396.88,190.5 -396.88,190.5"/>
  <path class="fil0 str2" d="M2230.76 4649.65c38.19,-56.47 80.37,-104.78 126.53,-144.91"/>
  <path class="fil0 str2" d="M1084.01 1629.24c-21.62,45.18 -54.4,102.72 -98.35,172.62"/>
  <path class="fil1 str2" d="M876.09 1318.39c26.52,-200.88 138.53,-259.97 336.02,-177.27 9.08,18.52 16.13,34.76 21.15,48.74 140.24,-237.51 376.04,-416.53 707.39,-537.05 148.53,-143.23 162.64,-265.16 42.34,-365.79 -44.17,119.25 -120.03,186.27 -227.58,201.07 -786.2,-75.97 -1208.65,120.27 -1267.36,588.72 6.61,369.76 119.5,607.88 338.67,714.38 53.64,12.36 106.62,15.92 158.94,10.67 43.95,-69.9 76.73,-127.44 98.35,-172.62 -72.03,-20.29 -141.34,-123.91 -207.92,-310.85z"/>
  <path class="fil2 str2" d="M876.09 1318.39c26.52,-200.88 138.53,-259.97 336.02,-177.27 9.08,18.52 16.13,34.76 21.15,48.74 140.24,-237.51 376.04,-416.53 707.39,-537.05 148.53,-143.23 162.64,-265.16 42.34,-365.79 -44.17,119.25 -120.03,186.27 -227.58,201.07 -786.2,-75.97 -1208.65,120.27 -1267.36,588.72 6.61,369.76 119.5,607.88 338.67,714.38 53.64,12.36 106.62,15.92 158.94,10.67 43.95,-69.9 76.73,-127.44 98.35,-172.62 -72.03,-20.29 -141.34,-123.91 -207.92,-310.85z"/>
  <path class="fil3 str2" d="M1212.11 1141.12c-197.49,-82.7 -309.5,-23.61 -336.02,177.27 66.58,186.94 135.89,290.56 207.92,310.85 -21.62,45.18 -54.4,102.72 -98.35,172.62 75.31,130.12 133.1,264.86 173.37,404.2 209.74,136.33 486.67,199.84 830.81,190.51 -39.68,-56.66 -70.94,-111.32 -93.77,-163.96 -27.68,-63.79 -42.98,-124.63 -45.92,-182.51 134.21,18.35 211.13,-16.29 230.73,-103.91 -5.8,-25.66 -28.69,-66.28 -68.66,-121.86 -5.58,-6.07 17.79,-28.12 70.12,-66.15 0,0 -12.79,-20.72 -38.37,-62.17 0,0 17.2,-17.64 51.59,-52.92 -26.68,-18.79 -45.2,-45.69 -55.56,-80.7 84,-4.73 143.53,-25.9 178.6,-63.5 7.13,-4.63 -67.4,-129.86 -223.58,-375.71 0,0 31.29,-29.12 93.86,-87.37 -12.91,-102.39 -66.28,-226.31 -160.13,-371.75 4.06,-3.77 8.02,-7.52 11.9,-11.25 -331.35,120.52 -567.15,299.54 -707.39,537.05 -5.02,-13.98 -12.07,-30.22 -21.15,-48.74zm692.85 -48.66c25.34,156.99 -0.01,163.83 -76.05,20.51 20.23,-10.75 45.58,-17.58 76.05,-20.51z"/>
  <path class="fil4 str2" d="M876.09 1318.39c26.52,-200.88 138.53,-259.97 336.02,-177.27 9.08,18.52 16.13,34.76 21.15,48.74 140.24,-237.51 376.04,-416.53 707.39,-537.05 148.53,-143.23 162.64,-265.16 42.34,-365.79 -44.17,119.25 -120.03,186.27 -227.58,201.07 -786.2,-75.97 -1208.65,120.27 -1267.36,588.72 6.61,369.76 119.5,607.88 338.67,714.38 53.64,12.36 106.62,15.92 158.94,10.67 43.95,-69.9 76.73,-127.44 98.35,-172.62 -72.03,-20.29 -141.34,-123.91 -207.92,-310.85z"/>
  <path class="fil0 str2" d="M788.82 3197.5c10.59,-17.94 15.89,-26.91 15.89,-26.91"/>
  <path class="fil5 str2" d="M936.93 3519.85c-56.48,-109.82 -105.85,-217.27 -148.11,-322.35 10.59,-17.94 15.89,-26.91 15.89,-26.91 28.28,-208.76 100.34,-391.09 216.17,-546.99 6.61,-548.97 -198.62,-760.87 -615.69,-635.7 -365.31,1207.83 -167.77,2327.02 592.63,3357.59 125.43,17.85 153.25,-97.43 83.45,-345.84 -7.34,-26.12 -15.76,-53.71 -25.26,-82.77 -80.79,-251.6 -60.51,-487.97 60.84,-709.11 91,-282.42 31.03,-511.73 -179.92,-687.92z"/>
  <path class="fil0 str2" d="M873.43 5049.15c-396.18,-904.32 -532,-1816.26 -407.46,-2735.8"/>
  <path class="fil0 str2" d="M767.54 2357.9c-91.61,203.69 -125.13,404.77 -100.55,603.26 -4.52,416.45 97.79,721.61 306.92,915.46 -20.65,220.89 -84.15,381.4 -190.5,481.54 34.76,192.06 101.79,382.56 201.09,571.5"/>
  <path class="fil0 str2" d="M1901.41 1215.39c-11.37,-77.28 8.28,-56.33 -35.5,-116.35"/>
  <path class="fil0 str2" d="M1881.19 1167.38c12.24,17.44 23.07,36 35.06,52.9"/>
  <path class="fil0 str2" d="M1848.6 1104.32c16.42,28.59 21.32,34.52 47.55,48.75"/>
  <path class="fil0 str2" d="M1852.41 1145.11c8.35,4.29 25.98,18.22 28.42,28.31l0.36 -6.04"/>
  <path class="fil6 str2" d="M1865.91 1099.04c23.29,31.94 28.63,40.95 30.24,54.03 1.09,8.9 0.46,19.68 2.58,40.83 3.71,5.78 7.41,11.54 11.18,17.17 7.42,-12.69 5.77,-52.22 -4.95,-118.61 -14.11,1.36 -27.13,3.55 -39.05,6.58z"/>
  <path class="fil6 str2" d="M1828.91 1112.97c20.23,-10.75 45.58,-17.58 76.05,-20.51 10.72,66.39 12.37,105.92 4.95,118.61 -2.1,3.6 -4.93,5.04 -8.5,4.31 -13.57,-2.76 -37.74,-36.9 -72.5,-102.41zm69.82 80.93c3.71,5.78 7.41,11.54 11.18,17.17 -3.77,-5.63 -7.47,-11.39 -11.18,-17.17z"/>
  <path class="fil1 str2" d="M1961.06 2573.45c-327.57,39.3 -619.13,29.3 -874.68,-30.01 -23.2,25.9 -45.03,52.62 -65.5,80.16 -115.83,155.9 -187.89,338.23 -216.17,546.99 0,0 -5.3,8.97 -15.89,26.91 42.26,105.08 91.63,212.53 148.11,322.35 210.95,176.19 270.92,405.5 179.92,687.92 -121.35,221.14 -141.63,457.51 -60.84,709.11 9.5,29.06 17.92,56.65 25.26,82.77 325.11,26.71 708.27,-89.95 1149.49,-350 38.19,-56.47 80.37,-104.78 126.53,-144.91 356.87,59.56 722.15,82.72 1095.84,69.48 9.63,-187.09 7.49,-347.41 -6.41,-480.94 -54.75,-17.83 -109.27,-34.49 -163.56,-49.98 -214.73,-61.28 -425.86,-104.29 -633.39,-129.04 -69.55,-52.48 -128.97,-106.34 -178.27,-161.6 -47.38,-278.75 -127.19,-573.41 -239.45,-883.98 -20.5,-56.72 -42.08,-113.97 -64.75,-171.75 -37.09,54.71 -55.63,82.06 -55.63,82.06 -61.31,-32.73 -111.52,-101.24 -150.61,-205.54z"/>
  <path class="fil1 str2" d="M1086.38 2543.44c255.55,59.31 547.11,69.31 874.68,30.01 54.9,-6.59 110.81,-14.56 167.74,-23.92 -66.33,-222.03 -143.91,-327.67 -232.73,-316.92 22.83,52.64 54.09,107.3 93.77,163.96 -344.14,9.33 -621.07,-54.18 -830.81,-190.51 -81.97,63.35 -106.19,175.81 -72.65,337.38z"/>
  <path class="fil1 str2" d="M1961.06 2573.45c39.09,104.3 89.3,172.81 150.61,205.54 0,0 18.54,-27.35 55.63,-82.06 -12.38,-53.8 -25.22,-102.93 -38.5,-147.4 -56.93,9.36 -112.84,17.33 -167.74,23.92z"/>
  <path class="fil1 str2" d="M2232.05 2868.68c112.26,310.57 192.07,605.23 239.45,883.98 49.3,55.26 108.72,109.12 178.27,161.6 207.53,24.75 418.66,67.76 633.39,129.04 106.09,-65.76 216.54,-112.8 331.36,-141.13 38.28,-13.69 76.17,-28.61 113.67,-44.76 -67.82,-158.72 -92.34,-333.22 -73.55,-523.48 -192.32,59.81 -364.3,113.61 -515.94,161.4 -2.4,43.73 -12.98,80.78 -31.75,111.13 -39.99,-12.08 -64.69,-30.6 -74.09,-55.57 -22.25,73.57 -54.88,129.13 -97.89,166.69 -48.55,-20.32 -56.49,-89.99 -23.82,-209.02 -190.87,-213.52 -417.24,-426.81 -679.1,-639.88z"/>
  <path class="fil1 str2" d="M3446.72 4093.28c13.9,133.53 16.04,293.85 6.41,480.94 160.44,52.59 321.98,63.94 484.61,34.06 10.43,-1.92 20.87,-4 31.31,-6.26 7.38,-31.57 14.23,-62.38 20.53,-92.42 37.97,-180.93 56.35,-334.02 55.14,-459.28 -0.16,-16.8 -0.67,-33.11 -1.54,-48.91 -249.8,-12.93 -448.62,17.69 -596.46,91.87z"/>
  <path class="fil1 str2" d="M3728.19 3857.41c125.41,-54.01 246.42,-121.79 363.02,-203.33 -22.24,-37.95 -39.33,-147.45 -51.28,-328.5 -1.87,-28.25 -3.61,-58.23 -5.22,-89.96 -131.38,-4.54 -253.14,25.32 -365.26,89.59 -4.96,2.84 -9.89,5.75 -14.81,8.72 -18.79,190.26 5.73,364.76 73.55,523.48z"/>
  <path class="fil7 str2" d="M3937.74 4608.28c-162.63,29.88 -324.17,18.53 -484.61,-34.06 -373.69,13.24 -738.97,-9.92 -1095.84,-69.48 -46.16,40.13 -88.34,88.44 -126.53,144.91 -441.22,260.05 -824.38,376.71 -1149.49,350 68.56,102.56 127.95,189.74 178.17,261.54 -44.22,27.83 -82.16,60.37 -113.83,97.63 205.06,139.38 926.63,194.92 2164.71,166.62 60.77,-7.05 109.64,17.79 146.6,74.51 73.14,-25.16 83.71,-3.85 31.71,63.94 5.37,14.08 10.34,29.23 14.91,45.44 69.37,267.22 184.02,618.23 343.96,1053.04 240.78,-75.84 450.67,-154.19 629.66,-235.06 134.43,-60.74 251.44,-122.89 351.02,-186.46 13.85,-435.36 -25.95,-847.23 -119.38,-1235.6 -239.73,-31.38 -446.34,-74.55 -619.81,-129.51 -37.82,-33 -88.24,-155.49 -151.25,-367.46z"/>
  <path class="fil5 str2" d="M3310.32 5525.44c-1238.08,28.3 -1959.65,-27.24 -2164.71,-166.62 -43.42,51.09 -75.04,111.04 -94.86,179.85 63.17,102.12 268.34,178.19 615.52,228.21 88.99,12.83 187.32,23.94 294.97,33.33 227.93,19.9 497.7,32.13 809.29,36.68 165.49,2.42 342.77,2.67 531.85,0.76 55.27,338.54 80,621.21 74.18,847.99 164.46,92.01 321.44,117.59 470.94,76.73 -159.94,-434.81 -274.59,-785.82 -343.96,-1053.04 -4.57,-16.21 -9.54,-31.36 -14.91,-45.44 -9.36,-24.55 -19.93,-45.87 -31.71,-63.94 -36.96,-56.72 -85.83,-81.56 -146.6,-74.51z"/>
  <path class="fil8 str2" d="M1145.61 5358.82c205.06,139.38 926.63,194.92 2164.71,166.62 60.77,-7.05 109.64,17.79 146.6,74.51 73.14,-25.16 83.71,-3.85 31.71,63.94 5.37,14.08 10.34,29.23 14.91,45.44 69.37,267.22 184.02,618.23 343.96,1053.04 240.78,-75.84 450.67,-154.19 629.66,-235.06 134.43,-60.74 251.44,-122.89 351.02,-186.46 13.85,-435.36 -25.95,-847.23 -119.38,-1235.6 -239.73,-31.38 -446.34,-74.55 -619.81,-129.51 -37.82,-33 -88.24,-155.49 -151.25,-367.46 -162.63,29.88 -324.17,18.53 -484.61,-34.06 -373.69,13.24 -738.97,-9.92 -1095.84,-69.48 -46.16,40.13 -88.34,88.44 -126.53,144.91 -441.22,260.05 -824.38,376.71 -1149.49,350 68.56,102.56 127.95,189.74 178.17,261.54 -44.22,27.83 -82.16,60.37 -113.83,97.63z"/>
  <path class="fil1 str2" d="M1081.27 4999.65c325.11,26.71 708.27,-89.95 1149.49,-350 38.19,-56.47 80.37,-104.78 126.53,-144.91 356.87,59.56 722.15,82.72 1095.84,69.48 9.63,-187.09 7.49,-347.41 -6.41,-480.94 -54.75,-17.83 -109.27,-34.49 -163.56,-49.98 -214.73,-61.28 -425.86,-104.29 -633.39,-129.04 -69.55,-52.48 -128.97,-106.34 -178.27,-161.6 -47.38,-278.75 -127.19,-573.41 -239.45,-883.98 -20.5,-56.72 -42.08,-113.97 -64.75,-171.75 -37.09,54.71 -55.63,82.06 -55.63,82.06 -61.31,-32.73 -111.52,-101.24 -150.61,-205.54 -327.57,39.3 -619.13,29.3 -874.68,-30.01 -23.2,25.9 -45.03,52.62 -65.5,80.16 -115.83,155.9 -187.89,338.23 -216.17,546.99 0,0 -5.3,8.97 -15.89,26.91 42.26,105.08 91.63,212.53 148.11,322.35 210.95,176.19 270.92,405.5 179.92,687.92 -121.35,221.14 -141.63,457.51 -60.84,709.11 9.5,29.06 17.92,56.65 25.26,82.77z"/>
  <path class="fil9 str2" d="M1081.27 4999.65c325.11,26.71 708.27,-89.95 1149.49,-350 38.19,-56.47 80.37,-104.78 126.53,-144.91 356.87,59.56 722.15,82.72 1095.84,69.48 9.63,-187.09 7.49,-347.41 -6.41,-480.94 -54.75,-17.83 -109.27,-34.49 -163.56,-49.98 -214.73,-61.28 -425.86,-104.29 -633.39,-129.04 -69.55,-52.48 -128.97,-106.34 -178.27,-161.6 -47.38,-278.75 -127.19,-573.41 -239.45,-883.98 -20.5,-56.72 -42.08,-113.97 -64.75,-171.75 -37.09,54.71 -55.63,82.06 -55.63,82.06 -61.31,-32.73 -111.52,-101.24 -150.61,-205.54 -327.57,39.3 -619.13,29.3 -874.68,-30.01 -23.2,25.9 -45.03,52.62 -65.5,80.16 -115.83,155.9 -187.89,338.23 -216.17,546.99 0,0 -5.3,8.97 -15.89,26.91 42.26,105.08 91.63,212.53 148.11,322.35 210.95,176.19 270.92,405.5 179.92,687.92 -121.35,221.14 -141.63,457.51 -60.84,709.11 9.5,29.06 17.92,56.65 25.26,82.77z"/>
  <path class="fil9 str2" d="M1086.38 2543.44c255.55,59.31 547.11,69.31 874.68,30.01 54.9,-6.59 110.81,-14.56 167.74,-23.92 -66.33,-222.03 -143.91,-327.67 -232.73,-316.92 22.83,52.64 54.09,107.3 93.77,163.96 -344.14,9.33 -621.07,-54.18 -830.81,-190.51 -81.97,63.35 -106.19,175.81 -72.65,337.38z"/>
  <path class="fil9 str2" d="M2232.05 2868.68c112.26,310.57 192.07,605.23 239.45,883.98 49.3,55.26 108.72,109.12 178.27,161.6 207.53,24.75 418.66,67.76 633.39,129.04 106.09,-65.76 216.54,-112.8 331.36,-141.13 38.28,-13.69 76.17,-28.61 113.67,-44.76 -67.82,-158.72 -92.34,-333.22 -73.55,-523.48 -192.32,59.81 -364.3,113.61 -515.94,161.4 -2.4,43.73 -12.98,80.78 -31.75,111.13 -39.99,-12.08 -64.69,-30.6 -74.09,-55.57 -22.25,73.57 -54.88,129.13 -97.89,166.69 -48.55,-20.32 -56.49,-89.99 -23.82,-209.02 -190.87,-213.52 -417.24,-426.81 -679.1,-639.88z"/>
  <path class="fil9 str2" d="M2111.67 2778.99c0,0 18.54,-27.35 55.63,-82.06 -12.38,-53.8 -25.22,-102.93 -38.5,-147.4 -56.93,9.36 -112.84,17.33 -167.74,23.92 39.09,104.3 89.3,172.81 150.61,205.54z"/>
  <path class="fil9 str2" d="M3654.64 3333.93c-18.79,190.26 5.73,364.76 73.55,523.48 125.41,-54.01 246.42,-121.79 363.02,-203.33 -22.24,-37.95 -39.33,-147.45 -51.28,-328.5 -1.87,-28.25 -3.61,-58.23 -5.22,-89.96 -131.38,-4.54 -253.14,25.32 -365.26,89.59 -4.96,2.84 -9.89,5.75 -14.81,8.72z"/>
  <path class="fil9 str2" d="M4043.18 4001.41c-249.8,-12.93 -448.62,17.69 -596.46,91.87 13.9,133.53 16.04,293.85 6.41,480.94 160.44,52.59 321.98,63.94 484.61,34.06 10.43,-1.92 20.87,-4 31.31,-6.26 7.38,-31.57 14.23,-62.38 20.53,-92.42 37.97,-180.93 56.35,-334.02 55.14,-459.28 -0.16,-16.8 -0.67,-33.11 -1.54,-48.91z"/>
  <path class="fil3 str2" d="M4044.72 4050.32c1.21,125.26 -17.17,278.35 -55.14,459.28 167,-17.83 334.2,-97.33 501.6,-238.5 0.32,-0.96 0.84,-1.39 1.54,-1.31 7.89,-6.66 15.77,-13.47 23.66,-20.41 8.53,-46.55 35.87,-78.3 82.02,-95.25 8.17,1.66 16.23,3.28 24.18,4.88 89.93,18.01 166.31,31.95 229.12,41.81 0.11,-0.11 0.25,-0.09 0.41,0.06 94.06,14.75 157.66,20.33 190.79,16.75 42.19,-17.68 50.84,-32.78 25.95,-45.29 66.9,-17.72 81.16,-47.58 42.79,-89.61 6.97,-0.68 13.57,-1.45 19.8,-2.3 0.4,-0.53 0.9,-0.6 1.51,-0.21 89.8,-12.64 101.71,-43.57 35.7,-92.8 -25.19,-8.61 -50.82,-16.44 -76.88,-23.5 -26.55,-7.19 -53.55,-13.57 -81,-19.16 -66.7,-13.57 -136.05,-22.4 -208.05,-26.48 -19.82,-1.13 -39.83,-1.89 -60.05,-2.3 -38.84,-41.43 -75.89,-42.31 -111.13,-2.64 -11.57,-12.64 -24.33,-21.26 -38.25,-25.85 -34.8,-11.46 -76.94,2.23 -126.42,41.08 -22.09,2.92 -43.76,6.18 -65.01,9.78 -136.52,23.16 -255.57,60.48 -357.14,111.97z"/>
  <path class="fil3 str2" d="M4091.21 3654.08c44.86,-37.9 115.11,-59.21 210.73,-63.92 49.12,32.82 130.47,65.59 244.04,98.31 33.2,9.57 69.15,19.13 107.86,28.69 78.59,-50.12 69.77,-102.16 -26.46,-156.1 -56.89,-21.96 -108.17,-39.09 -153.86,-51.4 43.6,-29.15 118.68,-35.54 225.24,-19.19 66.04,10.14 144.17,29.01 234.39,56.62 49.1,15.03 101.79,32.65 158.05,52.85 -14.8,-32.27 -30.08,-65.57 -45.84,-99.92 -87.32,-80.45 -252.35,-135.8 -495.1,-166.05 87.54,-17.03 189.79,-7.06 306.75,29.9 121.42,4.82 131.31,-26.46 29.67,-93.86 -16.6,-9.33 -34.69,-17.87 -54.28,-25.61 -88.29,-34.91 -206.91,-53.72 -355.83,-56.41 -106.3,10.48 -175.09,47.53 -206.38,111.13 -72.84,-1.21 -149.6,7.61 -230.26,26.46 11.95,181.05 29.04,290.55 51.28,328.5z"/>
  <path class="fil3 str2" d="M1989.84 2396.57c-39.68,-56.66 -70.94,-111.32 -93.77,-163.96 -27.68,-63.79 -42.98,-124.63 -45.92,-182.51 134.21,18.35 211.13,-16.29 230.73,-103.91 -5.8,-25.66 -28.69,-66.28 -68.66,-121.86 -5.58,-6.07 17.79,-28.12 70.12,-66.15 0,0 -12.79,-20.72 -38.37,-62.17 0,0 17.2,-17.64 51.59,-52.92 -26.68,-18.79 -45.2,-45.69 -55.56,-80.7 84,-4.73 143.53,-25.9 178.6,-63.5 7.13,-4.63 -67.4,-129.86 -223.58,-375.71 0,0 31.29,-29.12 93.86,-87.37 -12.91,-102.39 -66.28,-226.31 -160.13,-371.75 4.06,-3.77 8.02,-7.52 11.9,-11.25 -331.35,120.52 -567.15,299.54 -707.39,537.05 -5.02,-13.98 -12.07,-30.22 -21.15,-48.74 -197.49,-82.7 -309.5,-23.61 -336.02,177.27 66.58,186.94 135.89,290.56 207.92,310.85 -21.62,45.18 -54.4,102.72 -98.35,172.62 75.31,130.12 133.1,264.86 173.37,404.2 209.74,136.33 486.67,199.84 830.81,190.51zm-79.93 -1185.5c-2.1,3.6 -4.93,5.04 -8.5,4.31 -13.57,-2.76 -37.74,-36.9 -72.5,-102.41 6.1,-3.24 12.66,-6.12 19.69,-8.65 5.49,-1.98 11.26,-3.73 17.31,-5.28 11.92,-3.03 24.94,-5.22 39.05,-6.58 10.72,66.39 12.37,105.92 4.95,118.61zm-8.5 4.31c-13.57,-2.76 -37.74,-36.9 -72.5,-102.41 20.23,-10.75 45.58,-17.58 76.05,-20.51 10.72,66.39 12.37,105.92 4.95,118.61 -2.1,3.6 -4.93,5.04 -8.5,4.31z"/>
  <path class="fil4 str2" d="M4511.48 4479.41c-0.75,0.06 -1.5,0.12 -2.25,0.18 1.08,-0.16 1.83,-0.22 2.25,-0.18zm557.37 -307.07c24.89,12.51 16.24,27.61 -25.95,45.29 -33.13,3.58 -96.73,-2 -190.79,-16.75 -0.14,-0.02 -0.27,-0.04 -0.41,-0.06 -62.81,-9.86 -139.19,-23.8 -229.12,-41.81 -7.95,-1.6 -16.01,-3.22 -24.18,-4.88 -46.15,16.95 -73.49,48.7 -82.02,95.25 -7.89,6.94 -15.77,13.75 -23.66,20.41 -0.51,0.44 -1.03,0.87 -1.54,1.31 -167.4,141.17 -334.6,220.67 -501.6,238.5 -6.3,30.04 -13.15,60.85 -20.53,92.42 0,0 16.17,-5.07 48.5,-15.22 -1.73,-10.21 0,-10.59 5.17,-1.12 103.22,-22.26 205.42,-36.68 306.59,-43.26 127.44,-41.43 188.17,-62.43 182.17,-63.01 296.44,-23.68 608.78,-9.5 937.02,42.52 -40.81,58.93 -59.33,110.96 -55.56,156.1 178.62,-17.4 287.98,-111.77 328.09,-283.1 -337.82,-757.93 -571.53,-1153.93 -701.13,-1188 -73.68,7.45 -136.17,19.94 -187.5,37.47 19.59,7.74 37.68,16.28 54.28,25.61 101.64,67.4 91.75,98.68 -29.67,93.86 48.61,15.37 99.76,35.39 153.45,60.08 11.88,25.9 23.52,51.26 34.9,76.07 15.76,34.35 31.04,67.65 45.84,99.92 -56.26,-20.2 -108.95,-37.82 -158.05,-52.85 -90.22,-27.61 -168.35,-46.48 -234.39,-56.62 20.46,84.08 55.12,226.68 103.96,427.81 67.91,-51.87 157.05,-86.37 267.4,-103.49 17,22.44 16.37,47.25 -1.9,74.41 0,0 7.85,24.91 23.55,74.72 26.06,7.06 51.69,14.89 76.88,23.5 66.01,49.23 54.1,80.16 -35.7,92.8 -0.5,0.07 -1,0.14 -1.51,0.21 -6.23,0.85 -12.83,1.62 -19.8,2.3 38.37,42.03 24.11,71.89 -42.79,89.61z"/>
  <path class="fil4 str2" d="M4511.48 4479.41c5.98,0.58 -54.75,21.58 -182.17,63.01 6.82,24.44 21.81,44.07 44.98,58.88 352.27,40.42 691.82,66 1018.65,76.73 -3.77,-45.14 14.75,-97.17 55.56,-156.1 -328.24,-52.02 -640.58,-66.2 -937.02,-42.52z"/>
  <path class="fil4 str2" d="M4631.54 3913.34c35.24,-39.67 72.29,-38.79 111.13,2.64 20.22,0.41 40.23,1.17 60.05,2.3 -48.84,-201.13 -83.5,-343.73 -103.96,-427.81 -106.56,-16.35 -181.64,-9.96 -225.24,19.19 45.69,12.31 96.97,29.44 153.86,51.4 96.23,53.94 105.05,105.98 26.46,156.1 -38.71,-9.56 -74.66,-19.12 -107.86,-28.69 4.86,60.72 20.63,127.06 47.31,199.02 13.92,4.59 26.68,13.21 38.25,25.85z"/>
  <path class="fil0 str2" d="M4219.04 3980.97c-31.44,-200.05 -49.98,-322.27 -55.62,-366.67"/>
  <path class="fil4 str2" d="M4401.86 3938.35c21.25,-3.6 42.92,-6.86 65.01,-9.78 49.48,-38.85 91.62,-52.54 126.42,-41.08 -26.68,-71.96 -42.45,-138.3 -47.31,-199.02 -113.57,-32.72 -194.92,-65.49 -244.04,-98.31 -54.38,2.68 -100.55,10.73 -138.52,24.14 5.64,44.4 24.18,166.62 55.62,366.67 56.99,-17.41 117.93,-31.61 182.82,-42.62z"/>
  <path class="fil3 str2" d="M5070.12 3814.79c-110.35,17.12 -199.49,51.62 -267.4,103.49 72,4.08 141.35,12.91 208.05,26.48 26.5,-19.5 45.65,-38.02 57.45,-55.56 18.27,-27.16 18.9,-51.97 1.9,-74.41z"/>
  <path class="fil3 str2" d="M4550.26 3333.97c242.75,30.25 407.78,85.6 495.1,166.05 -11.38,-24.81 -23.02,-50.17 -34.9,-76.07 -53.69,-24.69 -104.84,-44.71 -153.45,-60.08 -116.96,-36.96 -219.21,-46.93 -306.75,-29.9z"/>
  <path class="fil0 str2" d="M3798.86 4003.9c-61.69,-103.09 -83.28,-152.77 -64.77,-149.04"/>
  <path class="fil0 str2" d="M3738.69 4010.18c-41.72,-49.9 -64.05,-93.06 -66.98,-129.49"/>
  <path class="fil0 str2" d="M3605.79 3349.13c-9.12,-96.36 -9.73,-218.65 -1.83,-366.87 90.58,-53.67 293.51,-93.48 608.79,-119.42"/>
  <path class="fil0 str2" d="M7287.81 5108.03c18.4,-108.17 34.62,-219.3 48.65,-333.4 -337.51,-627.56 -506.27,-941.34 -506.27,-941.34"/>
  <path class="fil0 str2" d="M5828.32 3404.09c23.32,16.7 32.21,16.64 26.67,-0.18"/>
  <path class="fil10 str2" d="M6452.74 4277.21c-42.19,194.16 -200.94,208.28 -476.25,42.34 -130.65,-298.33 -282.35,-585.84 -455.09,-862.55 80.63,-55.44 182.94,-73.08 306.92,-52.91 14.18,10.16 23.03,14.11 26.54,11.87 0.11,-4.01 0.15,-8.03 0.13,-12.05 -0.19,-28 -3.79,-56.16 -10.79,-84.49 -128.2,-141.82 -263.09,-307.75 -404.66,-497.79 -22.85,2.22 -53.65,6.15 -92.41,11.79 -478.07,-10.26 -856.19,-0.45 -1134.38,29.42 -275.59,29.59 -453.09,78.88 -532.52,147.85 -17.71,43.26 -21.3,148.1 -10.78,314.52 112.12,-64.27 233.88,-94.13 365.26,-89.59 1.61,31.73 3.35,61.71 5.22,89.96 80.66,-18.85 157.42,-27.67 230.26,-26.46 31.29,-63.6 100.08,-100.65 206.38,-111.13 148.92,2.69 267.53,21.5 355.83,56.41 51.32,-17.53 113.82,-30.02 187.5,-37.47 129.6,34.07 363.31,430.07 701.13,1188 -40.11,171.33 -149.47,265.7 -328.09,283.1 -326.83,-10.73 -666.38,-36.31 -1018.65,-76.73 -23.17,-14.81 -38.16,-34.44 -44.98,-58.88 -101.17,6.58 -203.37,21 -306.59,43.26 9,16.46 28.44,62.7 58.33,138.7 881.33,117.77 1966.47,134.52 3255.41,50.25 -337.51,-627.56 -506.27,-941.34 -506.27,-941.34 -40.6,81.89 -83.5,160.63 -128.69,236.24 -34.79,35.02 -75.38,40.75 -121.76,17.18 -134.22,-88.63 -270.04,-236.79 -407.46,-444.5 -3.62,34.56 -9.23,68.56 -16.82,102.01 112.82,155.74 211.92,333.4 297.28,532.99z"/>
  <path class="fil10 str2" d="M4219.04 3980.97c-31.44,-200.05 -49.98,-322.27 -55.62,-366.67 -28.79,10.17 -52.86,23.43 -72.21,39.78 -114.77,80.26 -233.81,147.19 -357.12,200.78 -1.97,0.86 -3.93,1.71 -5.9,2.55 -4.34,11.68 19.22,60.51 70.67,146.49 75.15,-6.2 156.59,-7.03 244.32,-2.49 0.87,15.8 1.38,32.11 1.54,48.91 53.3,-27.02 111.4,-50.13 174.32,-69.35z"/>
  <path class="fil10 str2" d="M3798.86 4003.9c-51.45,-85.98 -75.01,-134.81 -70.67,-146.49 -18.73,8.07 -37.56,15.83 -56.48,23.28 2.93,36.43 25.26,79.59 66.98,129.5 19.59,-2.5 39.64,-4.59 60.17,-6.29z"/>
  <path class="fil10 str2" d="M4017.55 4586.8c-32.33,10.15 -48.5,15.22 -48.5,15.22 -10.44,2.26 -20.88,4.34 -31.31,6.26 63.01,211.97 113.43,334.46 151.25,367.46 2.67,-84.75 0.03,-168.54 -7.94,-251.36 -29.89,-76 -49.33,-122.24 -58.33,-138.7 -1.72,0.37 -3.45,0.74 -5.17,1.12z"/>
  <path class="fil10 str2" d="M3605.79 3349.13c16.13,-5.02 32.42,-10.09 48.85,-15.2 4.92,-2.97 9.85,-5.88 14.81,-8.72 -10.52,-166.42 -6.93,-271.26 10.78,-314.52 79.43,-68.97 256.93,-118.26 532.52,-147.85 -315.28,25.94 -518.21,65.75 -608.79,119.42 -7.9,148.22 -7.29,270.51 1.83,366.87z"/>
  <path class="fil10 str2" d="M7336.46 4774.63c-1288.94,84.27 -2374.08,67.52 -3255.41,-50.25 7.97,82.82 10.61,166.61 7.94,251.36 173.47,54.96 380.08,98.13 619.81,129.51 630.51,82.51 1490.18,83.44 2579.01,2.78 18.4,-108.17 34.62,-219.3 48.65,-333.4z"/>
  <path class="fil0 str2" d="M5630.65 481.77c-20.48,-4.6 -30.72,-6.9 -30.72,-6.9"/>
  <path class="fil11 str2" d="M5630.65 481.77c498.27,51.58 1019.25,154.32 1562.93,308.22 16.49,904.27 -188.12,2003.17 -613.84,3296.72 46.38,23.57 86.97,17.84 121.76,-17.18 45.19,-75.61 88.09,-154.35 128.69,-236.24 379.89,-766.25 558.6,-1807.58 536.14,-3123.98 -735.9,-189.44 -1303.88,-282.93 -1703.93,-280.46 -22.78,13.08 -43.6,28.42 -62.47,46.02 0,0 10.24,2.3 30.72,6.9z"/>
  <path class="fil11 str2" d="M7023.71 948.77c6.35,664.95 -150.64,1594.53 -470.96,2788.72 -484.74,-444.82 -835.76,-820.53 -1053.05,-1127.13 76.7,-875.34 140.2,-1526.21 190.5,-1952.63 727.11,189.88 1171.62,286.89 1333.51,291.04zm-443.97 3137.94c425.72,-1293.55 630.33,-2392.45 613.84,-3296.72 -543.68,-153.9 -1064.66,-256.64 -1562.93,-308.22 -20.48,-4.6 -30.72,-6.9 -30.72,-6.9 -35.49,33.11 -64.06,74.21 -85.7,123.31 -38.45,671.24 -82.11,1386.95 -130.98,2147.11 18.88,25.87 37.64,51.31 56.29,76.34 141.57,190.04 276.46,355.97 404.66,497.79 114.71,126.9 224.07,234.5 328.08,322.79 137.42,207.71 273.24,355.87 407.46,444.5zm-119.33 -3341.87c-1.87,-3.24 -3.5,-6.86 -4.92,-10.37 2.51,3.05 5.03,5.97 7.44,8.46 -0.75,0.67 -1.61,1.3 -2.52,1.91z"/>
  <path class="fil11 str2" d="M6172.28 3642.21c-104.01,-88.29 -213.37,-195.89 -328.08,-322.79 7,28.33 10.6,56.49 10.79,84.49 2.17,6.59 2.13,10.61 -0.13,12.05 -1.96,69.38 -24.92,137.74 -68.87,205.08 62.34,149.25 141.72,290.37 238.12,423.34 63.59,-94.49 107.37,-194.55 131.35,-300.16 7.59,-33.45 13.2,-67.45 16.82,-102.01z"/>
  <path class="fil11 str2" d="M6155.46 3744.22c-23.98,105.61 -67.76,205.67 -131.35,300.16 -96.4,-132.97 -175.78,-274.09 -238.12,-423.34 43.95,-67.34 66.91,-135.7 68.87,-205.08 -3.51,2.25 -12.35,-1.71 -26.54,-11.87 -123.98,-20.17 -226.29,-2.53 -306.92,52.91 172.74,276.71 324.44,564.22 455.09,862.55 275.31,165.94 434.06,151.82 476.25,-42.34 -85.36,-199.59 -184.46,-377.25 -297.28,-532.99z"/>
  <path class="fil11 str2" d="M2770.53 5836.89c-311.59,-4.55 -581.36,-16.78 -809.29,-36.68 -12.4,91.61 9.55,190.53 65.87,296.76 56.95,7.31 114.51,13.21 172.67,17.7 119.83,9.25 242.22,12.5 367.18,9.76 50.7,-1.11 101.82,-3.21 153.37,-6.3 39.3,-54.72 56.04,-148.46 50.2,-281.24z"/>
  <path class="fil11 str2" d="M2566.96 6124.43c-124.96,2.74 -247.35,-0.51 -367.18,-9.76 12.2,175.31 26.08,336.11 41.66,482.38 115.91,29.73 227.03,35.02 333.37,15.88 -11.84,-142.79 -14.46,-305.62 -7.85,-488.5z"/>
  <path class="fil11 str2" d="M2574.81 6612.93c-106.34,19.14 -217.46,13.85 -333.37,-15.88 -46.37,-1.91 -71.06,5.14 -74.09,21.17 -6.5,129.17 -1.21,235.89 15.88,320.15 72.72,5.9 116.82,5.01 132.29,-2.65 -15.99,-52.64 -17.75,-109.08 -5.29,-169.33 86.29,-55.72 139.21,-31.03 158.75,74.08 -4.75,131.52 -17.1,206.49 -37.04,224.9 34.18,30.61 50.03,55.63 47.55,75.08 51.98,-0.41 100.51,-1.62 145.6,-3.64 21.81,-28.04 27.98,-191.2 18.52,-489.49 -5.24,-15.82 -28.18,-27.28 -68.8,-34.39z"/>
  <path class="fil11 str2" d="M2468.98 6840.47c-19.54,-105.11 -72.46,-129.8 -158.75,-74.08 -12.46,60.25 -10.7,116.69 5.29,169.33 -15.47,7.66 -59.57,8.55 -132.29,2.65 30.24,43.32 42.51,109.45 36.81,198.39 94.36,3.08 180.85,4.31 259.45,3.69 2.48,-19.45 -13.37,-44.47 -47.55,-75.08 19.94,-18.41 32.29,-93.38 37.04,-224.9z"/>
  <path class="fil11 str2" d="M2220.04 7136.76c5.7,-88.94 -6.57,-155.07 -36.81,-198.39 -106.49,-14.73 -229.08,-5.91 -367.77,26.46 -7.15,38.75 -7.15,89.02 0,150.81 147.98,10.11 282.84,17.15 404.58,21.12z"/>
  <path class="fil0 str2" d="M2241.45 7568.06c160.51,-10.58 240.77,-15.87 240.77,-15.87"/>
  <path class="fil11 str2" d="M2241.45 7568.06c160.51,-10.58 240.77,-15.87 240.77,-15.87 4.59,-155.25 3.68,-292.5 -2.73,-411.74 -78.6,0.62 -165.09,-0.61 -259.45,-3.69 0.73,134.22 7.87,277.98 21.41,431.3z"/>
  <path class="fil0 str2" d="M2448.67 4833.66c538.25,-37.46 1018.03,64.85 1439.33,306.91"/>
  <path class="fil0 str2" d="M3888 5140.57c199.29,342.76 395.67,805 589.16,1386.74"/>
  <path class="fil0 str2" d="M4396.05 5053.87c151.2,138.36 293.04,409.73 425.52,814.1"/>
  <path class="fil12 str2" d="M4396.05 5053.87c151.2,138.36 293.04,409.73 425.52,814.1 -16.27,-263.58 -53.86,-517.82 -112.77,-762.72 -111.4,-14.58 -215.65,-31.71 -312.75,-51.38z"/>
  <path class="fil10 str2" d="M4708.8 5105.25c58.91,244.9 96.5,499.14 112.77,762.72 9.52,154.42 11.73,312.05 6.61,472.88 -0.64,20.28 -1.4,40.6 -2.28,60.98 815.09,7.9 1645.01,-67.95 2489.78,-227.55 74.73,-690.96 65.44,-1046.38 -27.87,-1066.25 -1088.83,80.66 -1948.5,79.73 -2579.01,-2.78z"/>
 </g>
</svg>
