<?xml version="1.0" encoding="UTF-8"?>
<!DOCTYPE svg PUBLIC "-//W3C//DTD SVG 1.1//EN" "http://www.w3.org/Graphics/SVG/1.1/DTD/svg11.dtd">
<!-- Creator: CorelDRAW 2019 (64 Bit) -->
<svg xmlns="http://www.w3.org/2000/svg" xml:space="preserve" width="945mm" height="1080mm" version="1.1" style="shape-rendering:geometricPrecision; text-rendering:geometricPrecision; image-rendering:optimizeQuality; fill-rule:evenodd; clip-rule:evenodd"
viewBox="0 0 94500 108000"
 xmlns:xlink="http://www.w3.org/1999/xlink">
 <defs>
  <style type="text/css">
   <![CDATA[
    .fil23 {fill:none}
    .fil14 {fill:#FEFEFE}
    .fil3 {fill:#E6E7E8}
    .fil8 {fill:#A9ABAE}
    .fil11 {fill:#848688}
    .fil4 {fill:#0290E6}
    .fil17 {fill:#0497D9}
    .fil18 {fill:#061D34}
    .fil0 {fill:#0A2D4D}
    .fil13 {fill:#0B85B9}
    .fil9 {fill:#0DA34B}
    .fil7 {fill:#0DA34B}
    .fil2 {fill:#27EA79}
    .fil5 {fill:#2AA8F7}
    .fil19 {fill:#2DAEE3}
    .fil10 {fill:#3D95CC}
    .fil24 {fill:#559BB4}
    .fil1 {fill:#93D3FA}
    .fil12 {fill:#93D3FA}
    .fil20 {fill:#C8DAEB}
    .fil22 {fill:#C8DAEB}
    .fil21 {fill:#C8E7F7}
    .fil15 {fill:#E4765B}
    .fil6 {fill:#F8A07A}
    .fil16 {fill:#F9FEFE}
   ]]>
  </style>
 </defs>
 <g id="Camada_x0020_1">
  <metadata id="CorelCorpID_0Corel-Layer"/>
  <path class="fil0" d="M42753.07 44903.41c39.87,-275.12 -55.78,-1000.71 -27.89,-1766.18 27.89,-765.51 179.42,-1570.89 398.67,-2240.66 219.29,-669.81 506.35,-1204.05 749.55,-1570.85 243.21,-366.8 442.52,-566.11 542.2,-665.79 99.68,-99.68 99.68,-99.68 151.48,-27.89 51.85,71.74 155.51,215.27 498.4,510.33 342.88,295.01 924.95,741.5 1355.53,1048.49 430.63,307 709.68,474.48 1140.27,669.86 430.58,195.33 1012.69,418.6 1538.93,633.92 526.28,215.27 996.74,422.58 1323.67,797.34 326.92,374.75 510.32,916.99 628.72,1317.02 118.43,400.02 171.82,657.87 198.86,952.84 27.03,294.92 27.71,627 36.84,1088.14 9.17,461.1 26.9,1051.35 44.57,1641.55 271.1,-7.95 542.24,-15.95 813.34,-23.91 183.72,-602.27 367.39,-1204.59 482.16,-1707.05 114.78,-502.51 160.66,-905.16 312.01,-1206.04 151.35,-300.89 408.16,-499.93 640.25,-595.5 232.08,-95.56 439.4,-87.56 666.65,91.86 227.24,179.38 474.47,530.22 586.09,924.95 111.65,394.69 87.7,833.23 -59.81,1287.77 -147.51,454.5 -418.65,924.91 -625.96,1204.01 -207.32,279.05 -350.84,366.8 -502.37,430.58 -151.49,63.79 -310.93,103.66 -414.58,187.38 -103.66,83.72 -151.53,211.34 -231.27,390.76 -79.7,179.37 -191.36,410.65 -271.1,534.24 -79.7,123.59 -127.57,139.5 -131.55,239.18 -3.98,99.68 35.89,283.08 43.85,382.76 8,99.68 -15.96,115.59 130.46,65.77 146.42,-49.86 463.18,-165.45 856.78,-452.51 393.61,-287.05 864.06,-745.57 1411.37,-1528.99 547.3,-783.41 1171.46,-1891.76 1794.48,-3008.07 623.07,-1116.35 1245.05,-2240.66 1631.74,-3057.98 386.73,-817.31 538.26,-1327.64 545.13,-1802.07 6.88,-474.43 -130.87,-912.97 -390.03,-1271.77 -259.12,-358.84 -639.7,-637.94 -1076.53,-992.08 -436.77,-354.19 -929.78,-783.46 -1276.65,-1305.72 -346.86,-522.31 -547.53,-1137.6 -899.05,-1664.52 -351.51,-526.96 -853.84,-965.54 -1328.32,-1244.6 -474.43,-279.1 -920.93,-398.67 -1574.78,-354.82 -653.85,43.85 -1515.07,251.17 -2276.55,462.46 -761.49,211.29 -1423.35,426.6 -1909.76,586.09 -486.37,159.44 -797.34,263.14 -1164.13,247.18 -366.8,-15.96 -789.38,-151.48 -1145.38,-410.65 -355.95,-259.16 -645.31,-641.87 -1071.91,-869.12 -426.56,-227.29 -990.46,-299.03 -1552.64,-360.83 -562.13,-61.84 -1122.54,-113.65 -1601,141.54 -478.41,255.14 -874.82,817.27 -1193.79,1337.59 -318.92,520.27 -560.46,998.72 -616.28,1417.37 -55.79,418.61 74.09,777.4 190.85,1184.07 116.77,406.67 220.43,861.17 359.93,1251.88 139.55,390.71 314.99,717.64 406.67,988.79 91.72,271.09 99.68,486.36 103.66,956.82 4.02,470.45 4.02,1196.09 0,1626.68 -3.98,430.58 -11.94,566.1 15.95,781.42 27.9,215.27 91.73,510.33 187.38,817.32 95.7,306.99 223.27,625.91 422.58,936.93 199.36,310.97 470.5,613.94 693.77,853.16 223.27,239.23 398.67,414.63 438.54,139.55z"/>
  <path class="fil1" d="M73742.78 68073.72c-23.78,-28.43 -44.17,-120.06 -50.09,-99.22l-305.72 -1102.97c-176.13,-556.21 -325.85,-681.21 -609.83,-1138.73 -2067.88,-3331.84 1654.08,-4226.95 1286.19,-7498.03 1494.63,1240.98 -389.99,3581.28 -807.05,4737.37 -793.32,2199.16 1354.27,2999.66 486.5,5101.58zm9471.16 -19300.07c11.62,-934.95 491.52,-1860.49 482.25,-3268.64 -20.47,-3116.7 -1386.27,-5776.78 -3161.68,-7937.83 -3137.63,-3819.15 -5104.34,-4316.51 -8802.93,-5916.42 6786.27,-574.88 12044.63,4844.82 12722.98,10931.98 321.6,2885.79 -164.41,4118.45 -1240.62,6190.91zm-57795.95 -5826.87c32.82,-152.07 116.22,-380.32 174.04,-624.79 807.56,-3413.97 451.88,-7060.25 1501.01,-10003.23 2358.87,-6617.15 9212,-10834.43 16630.82,-8659 2581.47,756.97 7151.98,3419.54 7881.33,5259 -1191.85,-224.86 -4777.06,-3039.81 -8437.81,-3877.15 -3765.26,-861.26 -7428.27,247.05 -9849.17,1859.44 -7018.44,4674.53 -5951.99,11920.13 -7868.08,16716.44l-32.14 -670.71zm-13221.69 32676.37c281.14,-654.94 137.02,-2.21 1239.54,-345.1 507.88,-157.95 18.67,141.86 389.94,-210.48 -623.29,-2594.66 -1034.12,-5361.7 -1557.74,-7963.14 -278.28,-1382.39 -512.99,-2636.26 -778.03,-4019.64 -260.48,-1359.38 -909.09,-2908.85 -20.48,-3553.84 945.21,-1321.18 1198,-925.67 3114.4,-817.68l14831.32 813.39c1794.75,84.94 1753.21,165.22 2129.14,1847.5 220.47,986.66 1233.66,5912.13 1553.31,6380.14 695.44,-907.91 1206.27,-2168.87 1788.88,-3238.08 640.02,-1174.53 1223.94,-2301.77 1851.89,-3410.26 928.07,-1638.25 3201.28,-5358.58 4770.27,-5522.09 911.58,-1029.78 3190.21,-2040.08 4803.51,-2394.18l153.42 -73.28c-25.58,-236.79 -69.34,-163.42 191.22,-163.42l136.25 -1082.35c-1175.21,-507.12 -2044.92,-1565.2 -2632.86,-2634.81 -829.57,-1509.06 -924.64,-2316.65 -1371.72,-4072.67 -960.89,-639.02 -1727.62,-1943.43 -1764.92,-3820.95 -20.75,-1041.77 177.84,-1550.56 -108.76,-2582.42 -199,-716.37 -615.11,-1407.43 -594.37,-2083.25 -447.62,-409.88 -321.27,-1028.07 -216.03,-1670.4 459.69,-828.57 898.59,-2642.81 3339.88,-2492.45 2157.66,132.86 2049.98,1807.05 4236.76,1555.93 1826.48,-209.71 6209.21,-3347.25 8078.83,1338.9 794.12,1990.54 2199.65,1897.1 2871.14,3019.73 969.21,1620.49 -352.7,3248.25 -978.7,4364.56 -1256.81,2241.34 -2970.28,5989.83 -4929.36,6659.33l-66.77 975.49 36.26 2392.59 599.52 265.59 649.87 158.4c1262.82,356.58 2403.04,868.31 3568.62,1296.77 3658.4,1344.73 5084.19,3726.79 7239.05,7590.2 1210.69,2170.63 2276.28,4169.54 3520.52,6364.63 1295.95,2286.27 2702.89,5250.31 246.37,6777.31l2414.43 72.29 4.66 -6578.14 5437.82 77.89 94.89 1803.11c3292.87,-56.68 3448.51,3606.55 1555.89,4472.83 682.74,553.81 5576.83,-7.46 6845.25,249.8 415.85,84.36 88.74,-38.87 338.78,123.64l130.73 -295.33c193.53,-1097.77 417.93,-1673.42 433.39,-2923.81 13.2,-1063.55 -358.17,-2198.48 -322.59,-3057.84 -463.09,-520.81 -541.34,-1482.56 -1682.87,-2984.61 -797.38,-1049.22 -1463.17,-1518.09 -2172.4,-2633.81 -1237.59,-1946.96 -2168.2,-4601.25 -1666.87,-7478.27 478.5,-2746.15 1660.68,-4291.15 3091.25,-6291.58 1696.25,-2371.94 2088.59,-3997.4 1833.63,-7634.64 -137.11,-487.86 -560.86,-2247.13 -540.25,-2590.24 -119.39,-133.44 -95.25,-100.67 -222.46,-309.43l-1751.22 -3295.99 -666.91 -676.77c-3677.75,-4697.67 -9544.31,-4176.86 -14945.74,-4217.55 -6618.83,-49.9 -11029.86,1089.91 -15059.12,-2932.21 -796.03,-794.58 -946.56,-689.66 -1294.28,-1506.66 -250.58,34.67 -405.27,-127.3 -763.71,-411.42 -9083.56,-7200.93 -20370.91,-2772.27 -23097.35,6430.46 -1069.33,3609.48 -489.98,7544.58 -1795.7,10970.99 -2262.04,5936.13 -8346.67,5746.94 -12444.33,9890.67 -4780.4,4834.19 -4433.5,15126.2 -736.67,20962.92l661.58 1113.73z"/>
  <path class="fil2" d="M41508.74 55583.87c-1628.93,2684.76 -1825.22,7056.23 -1774.86,10152.59 14.42,885.26 318.79,3289.84 -117.98,3852.38 444.09,189.86 223.54,12.79 311.46,759.54 32.23,273.9 22.42,820.3 34.67,1128.87 29.34,738.08 67.13,1473.75 82.91,2212.32 443.83,149.95 2496.03,298.63 3284.5,291.85 866.64,-278.56 1031.78,-878.62 2163.27,-1019.34 750.87,-655.35 6277.93,-1940.59 7972.19,-2605.25 1074.36,-421.45 2495.58,-1165.03 3222.53,-2061.42 936.61,-1154.95 978.52,-2390.92 1676.54,-3582.81 164.73,625.87 844.66,859.81 809.31,1794.48 683.24,211.56 1060.21,1218.88 1731.11,2185.01 353.37,508.84 1461.68,1670.85 1427.68,2203.59 -1196.55,174.77 -2827.88,708.06 -3918.83,543.65 -35.12,20.61 -83.63,46.15 -107.68,57.54 -1263.67,599.29 -6041.91,1056.78 -7496.44,1473.25 -582.02,166.68 -472.49,192.04 -679.08,626.33 1476.14,-242.58 1934.21,739.34 1715.28,2151.56l-1014.68 348.04c933.81,1018.7 6933.9,151.25 8715.18,38.06 2750.63,-174.77 6447.5,-219.93 8970.65,-860.99 2456.52,-1527 1049.58,-4491.04 -246.37,-6777.31 -1244.24,-2195.09 -2309.83,-4194 -3520.52,-6364.63 -2154.86,-3863.41 -3580.65,-6245.47 -7239.05,-7590.2 -1165.58,-428.46 -2305.8,-940.19 -3568.62,-1296.77 352.06,2877.52 -1738.38,4362.97 -4439.78,4365.32 -1476.91,1.27 -2572.92,-341.8 -3249.28,-1219.15 -829.44,-1075.94 -710.86,-2060.78 59.4,-3200.69 -1613.3,354.1 -3891.94,1364.4 -4803.51,2394.18z"/>
  <path class="fil3" d="M20953.55 66163.44c1864.49,-931.44 3876.63,2630.17 2018.31,3367.57 -1899.81,753.88 -3922.83,-2416.13 -2018.31,-3367.57zm-7231.89 8985.8c513.12,791.34 861.9,596.66 2069.05,690.23 3696.04,286.32 16367.26,1579.08 18072.43,1365.32 521.82,-1205.18 -1144.65,-6700.88 -1514.84,-8384.14 -263.17,-1196.54 -1448.96,-7611.74 -2063.56,-8110.63 -691.42,-561.3 -16660.76,-1120.17 -18947.88,-1285.62 -899.37,652.81 -242.9,2221.05 20.73,3596.89 268.25,1400.14 505.8,2669.2 787.46,4068.33 529.96,2632.96 945.76,5433.52 1576.61,8059.62z"/>
  <path class="fil4" d="M12196.3 75623.15c396.5,270.38 1405.67,1765.05 2126.11,2479.48 840.78,833.77 1363,1464.89 2405.53,2171.09 3542.62,-10.49 14034.3,794.45 18270.97,1057.41 6071.29,376.78 12106.88,633.37 18177.04,1067.84 1853.88,132.68 2822.55,308.71 4604.91,-125.85l27332.39 -6498.12 94.94 -280.46c-250.04,-162.51 77.07,-39.28 -338.78,-123.64 -1268.42,-257.26 -6162.51,304.01 -6845.25,-249.8 -449.12,236.69 -891.82,366.8 -1586.13,396.68 -267.57,1253.23 -909.77,1234.97 -2220.59,1234.2 -1616.24,19.03 -3261.04,374.35 -3286.54,-1406.57l-2414.43 -72.29c-2523.15,641.06 -6220.02,686.22 -8970.65,860.99 -1781.28,113.19 -7781.37,980.64 -8715.18,-38.06 -1143.71,175.12 -1024.23,1008.8 -2675.36,558.65 -865.73,-236.07 -1557.65,-697.98 -2457.42,-377.61 -657.56,234.12 -1659.73,1006.6 -2227.51,991.77l-2199.12 -15.82 319.65 -1321.04 -7864.69 1166.53c-1684.76,211.2 -14204.32,-1066.09 -17856.12,-1348.98 -1192.7,-92.45 -1537.31,99.9 -2044.29,-681.98 -371.27,352.34 117.94,52.53 -389.94,210.48 -1102.52,342.89 -958.4,-309.84 -1239.54,345.1z"/>
  <path class="fil5" d="M16363.54 79816.58c114.4,116.5 205.36,322.51 364.44,457.15l2781.77 1773.53 912.79 432.71 18267 1513.71c2103.81,124.41 17147.11,1614.87 18381.03,1287.79 4316.41,-1144.1 25119.42,-7162.04 26067.57,-7056.64 35.23,-28.42 85.76,-58.71 113.67,-74.47 27.6,-15.53 80.14,-52.13 114.45,-70.22 33.85,-17.82 78.9,-44.04 116.78,-62.37l589.64 -231.9c329.17,-180.01 394.23,-342.93 587.63,-689.98 295.14,-529.65 646.25,-1199.84 817.35,-1825.98l-27623.69 6567.37c-1801.36,439.2 -2780.35,261.29 -4653.99,127.2 -6134.85,-439.1 -12234.75,-698.42 -18370.75,-1079.23 -4281.82,-265.76 -14885.31,-1079.27 -18465.69,-1068.67z"/>
  <path class="fil6" d="M42763.2 42772.83l25.36 2390.33c447.08,1756.02 542.15,2563.61 1371.72,4072.67 587.94,1069.61 1457.65,2127.69 2632.86,2634.81 1313.59,416.79 2484.23,313.63 3627.17,-367.84 1605.61,-957.41 1172.27,-1330.36 2293.32,-2383.83 285.2,-1682.19 1165.36,-1029.38 1881.23,-2371.49 644.36,-1207.98 445.28,-2391.28 -290.13,-3157.52 -1052.43,-120.29 -1561.94,363.28 -1864.28,1165.63 -289,766.78 -95.83,1860.21 -386.28,2490.42 -653.58,7.96 -868.71,-11.53 -677.95,-2235.37l-42.49 611.99c-196.46,-167.89 -86.39,-8.86 -307.58,-701.23 -540.03,-1690.14 -621.08,-2598.82 -2630.38,-3129.08 -1769.75,-467.07 -3298.97,-1003.11 -4691.03,-2024.35 -584.19,622.21 -778.08,1947.77 -941.54,3004.86z"/>
  <path class="fil7" d="M33097.7 67754.3c10.85,928.16 928.48,4956.89 1253.87,5572.68 741.96,46.83 1514.38,216.35 2072.72,-26.27 622.3,-875.63 1142.57,-1095.01 1724.77,-1854.38 357.63,-466.47 1305.9,-1438.21 1466.84,-1857.49 436.77,-562.54 132.4,-2967.12 117.98,-3852.38 -50.36,-3096.36 145.93,-7467.83 1774.86,-10152.59 -1568.99,163.51 -3842.2,3883.84 -4770.27,5522.09 -627.95,1108.49 -1211.87,2235.73 -1851.89,3410.26 -582.61,1069.21 -1093.44,2330.17 -1788.88,3238.08z"/>
  <path class="fil8" d="M11372.17 59479.27c2273.79,164.48 18150.18,720.1 18837.58,1278.14 611.02,495.99 1789.91,6873.84 2051.55,8063.42 368.03,1673.46 2024.8,7137.16 1506.02,8335.33l7913.63 -1173.79c436.45,-590.87 829.32,-1073.35 1248.57,-1571.89l-8126.6 1235.38 -406.33 -2284.71c-327.42,-619.63 -1250.76,-4673.42 -1261.67,-5607.36 -321.64,-470.92 -1341.14,-5427.04 -1562.98,-6419.84 -378.27,-1692.74 -336.46,-1773.53 -2142.39,-1859l-14923.61 -818.45c-1928.33,-108.66 -2182.69,-506.63 -3133.77,822.77z"/>
  <path class="fil9" d="M45492.71 72962.08c1790.55,-12.93 3463.34,668.72 4637.33,634.37 206.59,-434.29 97.06,-459.65 679.08,-626.33 1454.53,-416.48 6232.77,-873.96 7496.44,-1473.25 24.05,-11.39 72.56,-36.93 107.68,-57.54l760.04 -4932.25c35.36,-934.67 -644.58,-1168.61 -809.31,-1794.48 -698.02,1191.89 -739.93,2427.85 -1676.54,3582.81 -726.95,896.38 -2148.17,1639.97 -3222.53,2061.42 -1694.26,664.66 -7221.32,1949.9 -7972.19,2605.25z"/>
  <path class="fil6" d="M43329.44 73981.42c-162.37,238.14 -43.62,116.18 -247.9,315.26 -102.66,100.09 -203.74,138.29 -317.8,207.32 -416.61,495.49 -739.11,840.77 -1172.86,1428l-319.65 1321.04 2199.12 15.82c567.78,14.83 1569.95,-757.65 2227.51,-991.77 899.77,-320.37 1591.69,141.54 2457.42,377.61 1651.13,450.15 1531.65,-383.53 2675.36,-558.65l1014.68 -348.04c218.93,-1412.22 -239.14,-2394.14 -1715.28,-2151.56 -1173.99,34.35 -2846.78,-647.3 -4637.33,-634.37 -1131.49,140.72 -1296.63,740.78 -2163.27,1019.34z"/>
  <path class="fil10" d="M71759.16 73824.74c-385.63,-137.19 -156.02,132.76 -357.39,-267.82 -34.52,-68.71 -298.23,-3732.94 194.59,-4211.6 405.06,198.65 190.85,-54.27 354.44,400.67l42.86 3100.12c-15.41,655.85 82.23,541.83 -234.5,978.63zm-916.84 1657.28c26.02,1817.9 1704.98,1455.2 3354.78,1435.78 1312.07,-1216.18 955.47,-1222.87 954.5,-3430.51 -0.74,-1551.61 -0.04,-3103.21 -0.04,-4654.82l-299.3 -65.25 -4005.19 0.05 -4.75 6714.75z"/>
  <path class="fil6" d="M46656.89 52952.99c-260.56,0 -216.8,-73.37 -191.22,163.42 -349.8,2437.22 702.27,3498.15 3360.18,3429.98 1093.21,-28.03 2033.21,-394.15 2581.24,-981.06 259.75,-278.15 502.78,-702.9 524.21,-1196.72 9.99,-230.91 -64.2,-637.72 -62.43,-670.9 38.42,-732.69 -310.84,-461.37 423.17,-611.9l-599.52 -265.59 -36.26 -2392.59 -149.04 262.51c-24.05,42.54 -105.37,192.17 -131.5,236.56 -114.46,194.7 -77.39,163.78 -247.37,377.92 -1250.11,1575.55 -4210.76,2733.26 -5471.46,1648.37z"/>
  <path class="fil7" d="M53941.91 53244.21l-649.87 -158.4c-734.01,150.53 -384.75,-120.79 -423.17,611.9 -1.77,33.18 72.42,439.99 62.43,670.9 -21.43,493.82 -264.46,918.57 -524.21,1196.72 -548.03,586.91 -1488.03,953.03 -2581.24,981.06 -2657.91,68.17 -3709.98,-992.76 -3360.18,-3429.98l-153.42 73.28c-770.26,1139.9 -888.84,2124.75 -59.4,3200.69 676.36,877.35 1772.37,1220.42 3249.28,1219.15 2701.4,-2.35 4791.84,-1487.8 4439.78,-4365.32z"/>
  <path class="fil11" d="M34351.57 73192.06l403.82 2530.32 8008.35 -1218.66c114.06,-76.93 215.14,-119.5 317.8,-231.03 204.28,-221.86 246.55,-84.23 408.93,-349.62 -788.48,7.56 -3001.7,-159.84 -3445.53,-326.94 -724.19,41.86 -1344.41,-30.63 -2042.79,-91.94 -283.22,-24.83 -696.62,-36.02 -956.6,-73.45 -540.89,-77.88 -668.23,137.93 -621.26,-267.95 -558.34,270.37 -1330.76,81.46 -2072.72,29.27z"/>
  <path class="fil12" d="M58413.24 71439.33c1090.95,164.41 2722.28,-368.88 3918.83,-543.65 34,-532.74 -1074.31,-1694.75 -1427.68,-2203.59 -670.9,-966.13 -1047.87,-1973.45 -1731.11,-2185.01l-760.04 4932.25z"/>
  <path class="fil13" d="M74182.68 76864.04c1329.22,0.78 1980.43,19.3 2251.75,-1251.52l-49.46 -539.22c137.25,-166.17 94.16,-270.87 309.01,-361.81 -566.54,-288.89 -245.24,-2465.28 -258.49,-3147.38l29.61 -889.44 -96.22 -1828.42 -5514.14 -78.98 4276.1 64.77 0 0c0,1541.37 -0.69,3082.74 0.04,4624.12 0.96,2193.08 355.22,2199.72 -948.2,3407.88z"/>
  <path class="fil14" d="M20835.88 65918.52c-2081.28,1039.74 129.5,4503.96 2205.63,3680.12 2030.78,-805.84 -168.1,-4698.01 -2205.63,-3680.12z"/>
  <path class="fil12" d="M36424.29 73300.71c-46.97,364.22 80.37,170.56 621.26,240.45 259.98,33.59 673.38,43.62 956.6,65.91 698.38,55.02 1318.6,120.07 2042.79,82.5 -15.78,-738.57 -53.57,-1474.24 -82.91,-2212.32 -12.25,-308.57 -2.44,-854.97 -34.67,-1128.87 -87.92,-746.75 132.63,-569.68 -311.46,-759.54 -160.94,419.28 -1109.21,1391.02 -1466.84,1857.49 -582.2,759.37 -1102.47,978.75 -1724.77,1854.38z"/>
  <path class="fil15" d="M43704.74 39767.97c1392.06,1021.24 2921.28,1557.28 4691.03,2024.35 2009.3,530.26 2090.35,1438.94 2630.38,3129.08 221.19,692.37 97.51,730.08 293.97,897.97l56.1 -808.73c-609.32,-3034.43 -618.73,-2850.98 -2944.1,-3874.89 -828.12,-364.63 -1490.97,-725.68 -2180.27,-1172.13 -666.1,-431.45 -1336.55,-1047.15 -1817.9,-1312.46 -300.52,496.59 -442.7,460.19 -729.21,1116.81z"/>
  <path class="fil15" d="M46793.14 51870.64l-136.25 1082.35c1260.7,1084.89 4221.35,-72.82 5471.46,-1648.37 169.98,-214.14 132.91,-183.22 247.37,-377.92 26.13,-44.39 107.45,-194.02 131.5,-236.56l149.04 -262.51 66.77 -975.49 -9.4 -333.17c-1121.05,1053.47 -687.71,1426.42 -2293.32,2383.83 -1142.94,681.47 -2313.58,784.63 -3627.17,367.84z"/>
  <path class="fil16" d="M73742.78 68073.72c867.77,-2101.92 -1279.82,-2902.42 -486.5,-5101.58 417.06,-1156.09 2301.68,-3496.38 807.05,-4737.37 367.88,3271.08 -3354.07,4166.19 -1286.19,7498.03 283.98,457.52 433.7,582.52 609.83,1138.73l305.72 1102.97c5.92,-20.84 26.31,70.79 50.09,99.22z"/>
  <path class="fil17" d="M76294.18 71361.63c2718.5,-4.9 3060.58,3045.44 399.83,3349.84 -234.22,99.12 -305.31,293.61 -454.89,474.72l53.91 587.67c767.33,-33.02 1256.58,-176.81 1752.93,-438.39 2091.66,-957.38 1919.65,-5005.86 -1719.51,-4943.21l-32.27 969.37z"/>
  <path class="fil18" d="M42763.2 42772.83c163.46,-1057.09 357.35,-2382.65 941.54,-3004.86 286.51,-656.62 428.69,-620.22 729.21,-1116.81 -27.21,-13.42 -71.74,-24.5 -86.97,-26.58 -15.51,-2.12 -70.57,-19.44 -90.28,-20.66l-197.82 -3.07c-259.34,35.71 -102.34,4.34 -331.4,105.06 -267.44,117.53 -445.55,253.28 -703.31,456.3 -402.92,317.34 -750.55,768.36 -952.66,1270.78 -635.91,1580.43 316.17,2318.59 414.94,3313.2 2.17,-798.37 51.99,-658.05 276.75,-973.36z"/>
  <path class="fil19" d="M71821.51 74428.82c380.9,-525.29 263.48,-388.17 282.02,-1176.89l-51.56 -3728.19c-196.72,-547.11 60.88,-242.95 -426.24,-481.85 -592.67,575.63 -275.52,4982.22 -234.01,5064.85 242.17,481.74 -33.97,157.1 429.79,322.08z"/>
  <path class="fil20" d="M49907.04 33611.51c1289.81,-31.02 2789.55,-634.28 4178.54,272.45 165.95,108.31 307.57,210.16 456.35,334.34l580.3 469.69c-1290.71,-2743.58 -4620.87,-1204.82 -5215.19,-1076.48z"/>
  <path class="fil21" d="M57916.43 38094.55c681.03,1319.91 239.95,1955.63 442.75,3013.72 181.59,-605.58 430.49,-925.59 377.42,-1674.96 -64.96,-917 -398.62,-1128.51 -820.17,-1338.76z"/>
  <g id="_1459442832080">
   <path class="fil22" d="M40695.36 36838.37c-488.63,-3338.48 2270.36,-5061.58 4772.31,-3097.8 -658.06,-219.48 -1366.61,-561.68 -2069.33,-483.75 -2196.81,243.75 -2402.86,1979.65 -2702.98,3581.55z"/>
  </g>
  <path class="fil23" d="M40695.36 36838.37c3.98,-326.93 7.96,-653.85 41.81,-1026.62 33.91,-372.76 97.74,-791.41 316.99,-1200.07 219.29,-408.66 594.09,-807.33 952.89,-1056.5 358.84,-249.22 701.68,-348.85 984.75,-410.65 283.08,-61.79 506.35,-85.75 775.46,-53.84 269.11,31.87 584.1,119.62 875.14,237.24 291.03,117.58 558.15,265.13 825.27,412.64"/>
  <g id="_1459442830928">
   <path class="fil24" d="M45795.09 35486.59c2166.08,-59.13 7108.77,-1194.92 8501.28,213.46 853.75,863.47 229.15,1713.65 1259.2,3365.56 501.87,804.88 579.13,1244.28 322.41,2209.92 -33.95,-264.41 -23.1,-128.16 -29.34,-433.34 -44.08,-2147.31 -1128.38,-1511.5 -1339.62,-3628.57 -316.17,-3168.41 -5711.01,-1212.18 -8713.93,-1727.03z"/>
  </g>
  <path class="fil23" d="M45795.09 35486.59c474.44,39.87 948.91,79.7 1519,55.78 570.14,-23.91 1235.97,-111.61 1903.75,-175.4 667.82,-63.78 1337.63,-103.65 1812.06,-143.52 474.48,-39.87 753.53,-79.75 1148.22,-55.83 394.74,23.91 905.02,111.66 1291.75,257.17 386.74,145.52 649.88,348.85 841.24,600.02 191.4,251.16 310.97,550.19 350.84,809.36 39.87,259.12 0.04,478.41 63.83,789.42 63.78,310.97 231.22,713.62 426.56,1052.53 195.38,338.86 418.65,613.98 554.17,837.25 135.57,223.22 183.45,394.69 201.35,621.94 17.94,227.25 6.01,510.28 -3.98,709.63 -9.95,199.36 -17.95,314.95 -25.9,430.59"/>
  <path class="fil12" d="M76435.5 71564.09c13.24,682.11 -308.04,2858.49 258.53,3147.4 2611.66,-298.81 2330.21,-3243.19 -251.89,-3347.07l-6.64 199.67z"/>
 </g>
</svg>
