<?xml version="1.0" encoding="UTF-8"?>
<!DOCTYPE svg PUBLIC "-//W3C//DTD SVG 1.1//EN" "http://www.w3.org/Graphics/SVG/1.1/DTD/svg11.dtd">
<!-- Creator: CorelDRAW 2019 (64 Bit) -->
<svg xmlns="http://www.w3.org/2000/svg" xml:space="preserve" width="70.6436mm" height="11.6416mm" version="1.1" style="shape-rendering:geometricPrecision; text-rendering:geometricPrecision; image-rendering:optimizeQuality; fill-rule:evenodd; clip-rule:evenodd"
viewBox="0 0 7064.36 1164.16"
 xmlns:xlink="http://www.w3.org/1999/xlink">
 <defs>
  <style type="text/css">
   <![CDATA[
    .fil1 {fill:#0091EA}
    .fil0 {fill:#0091EA;fill-rule:nonzero}
    .fil2 {fill:#F0F0F5;fill-rule:nonzero}
   ]]>
  </style>
 </defs>
 <g id="Camada_x0020_1">
  <metadata id="CorelCorpID_0Corel-Layer"/>
  <path class="fil0" d="M1783.88 1150.84c-68.67,0 -127.94,-9.65 -177.8,-28.93 -49.86,-19.29 -91.02,-46.1 -123.47,-80.44 -32.46,-34.33 -56.45,-75.25 -71.97,-122.76 -15.52,-47.51 -23.28,-99.96 -23.28,-157.34l0 -608.19 220.13 0 0 589.84c0,39.52 4.47,73.15 13.41,100.9 8.93,27.75 21.16,50.33 36.69,67.73 15.52,17.41 34.33,29.87 56.44,37.4 22.11,7.52 46.33,11.29 72.67,11.29 53.62,0 97.13,-16.47 130.53,-49.39 33.4,-32.93 50.09,-88.9 50.09,-167.93l0 -589.84 220.14 0 0 608.19c0,57.38 -8,110.07 -23.99,158.04 -15.99,47.98 -40.45,89.14 -73.38,123.48 -32.93,34.33 -74.79,60.91 -125.59,79.72 -50.8,18.82 -111.01,28.23 -180.62,28.23zm177.8 -19.76l0 -977.9 654.75 0 0 184.86 -434.62 0 0 204.61 386.65 0 0 184.85 -386.65 0 0 403.58 -220.13 0zm949.67 28.22l-210.25 0 0 -742.24 210.25 0 0 742.24zm19.76 -956.73c0,38.57 -12.47,68.91 -37.4,91.01 -24.93,22.11 -54.32,33.17 -88.19,33.17 -33.87,0 -63.26,-11.06 -88.19,-33.17 -24.93,-22.1 -37.4,-52.44 -37.4,-91.01 0,-38.57 12.47,-68.91 37.4,-91.02 24.93,-22.11 54.32,-33.16 88.19,-33.16 33.87,0 63.26,11.05 88.19,33.16 24.93,22.11 37.4,52.45 37.4,91.02zm625.12 400.75c-18.82,-4.7 -40.92,-9.64 -66.32,-14.81 -25.4,-5.18 -52.68,-7.77 -81.85,-7.77 -13.17,0 -28.92,1.18 -47.27,3.53 -18.34,2.35 -32.22,4.94 -41.63,7.76l0 567.27 -210.25 0 0 -702.73c37.63,-13.17 82.08,-25.64 133.35,-37.4 51.27,-11.76 108.42,-17.64 171.45,-17.64 11.29,0 24.93,0.71 40.92,2.12 15.99,1.41 31.98,3.29 47.98,5.65 15.99,2.35 31.98,5.17 47.98,8.46 15.99,3.29 29.63,7.29 40.92,12l-35.28 173.56zm112.89 162.28c0,-65.85 10.11,-123.47 30.34,-172.86 20.22,-49.39 46.8,-90.54 79.73,-123.47 32.92,-32.93 70.79,-57.86 113.59,-74.79 42.8,-16.93 86.78,-25.4 131.94,-25.4 105.36,0 188.62,32.22 249.77,96.66 61.14,64.44 91.72,159.22 91.72,284.34 0,12.23 -0.47,25.64 -1.41,40.22 -0.94,14.58 -1.88,27.51 -2.83,38.8l-476.95 0c4.7,43.28 24.93,77.61 60.68,103.01 35.75,25.4 83.72,38.1 143.93,38.1 38.57,0 76.44,-3.52 113.6,-10.58 37.15,-7.06 67.49,-15.76 91.01,-26.11l28.22 170.75c-11.28,5.64 -26.34,11.29 -45.15,16.93 -18.82,5.65 -39.75,10.59 -62.8,14.82 -23.04,4.23 -47.74,7.76 -74.08,10.58 -26.34,2.82 -52.68,4.24 -79.02,4.24 -66.79,0 -124.88,-9.88 -174.27,-29.64 -49.39,-19.75 -90.31,-46.8 -122.77,-81.14 -32.46,-34.33 -56.44,-75.02 -71.97,-122.06 -15.52,-47.03 -23.28,-97.83 -23.28,-152.4zm493.89 -80.43c-0.94,-17.87 -4,-35.28 -9.17,-52.21 -5.18,-16.94 -13.17,-31.99 -23.99,-45.16 -10.82,-13.17 -24.46,-23.99 -40.92,-32.45 -16.47,-8.47 -36.93,-12.7 -61.39,-12.7 -23.52,0 -43.74,4 -60.68,11.99 -16.93,8 -31.04,18.58 -42.33,31.75 -11.29,13.17 -19.99,28.46 -26.1,45.86 -6.12,17.41 -10.59,35.05 -13.41,52.92l277.99 0zm789.52 19.75c-18.82,71.5 -38.81,142.53 -59.97,213.08 -21.17,70.56 -43.51,141.58 -67.03,213.08l-163.69 0c-16.93,-39.51 -35.28,-86.55 -55.27,-141.11 -19.75,-54.56 -40.22,-114.07 -61.38,-178.51 -21.4,-64.44 -43.04,-132.64 -65.15,-204.61 -22.11,-71.96 -43.74,-144.64 -64.44,-218.01l221.55 0c7.52,33.86 15.75,70.79 24.92,110.77 8.94,39.98 18.35,81.14 28.23,123.47 10.11,42.33 20.46,84.9 31.28,127.71 10.82,42.8 22.1,83.96 33.39,123.47 12.23,-41.39 24.23,-83.73 35.99,-127 11.76,-43.28 23.04,-85.84 33.86,-127.71 10.82,-41.86 21.17,-82.31 31.05,-121.35 9.88,-39.04 18.58,-75.5 26.1,-109.36l152.4 0c7.53,33.86 16,70.32 25.4,109.36 9.41,39.04 19.29,79.49 29.64,121.35 10.34,41.87 21.16,84.43 32.45,127.71 11.29,43.27 23.05,85.61 35.28,127 11.29,-39.51 22.81,-80.67 34.1,-123.47 11.29,-42.81 21.87,-85.38 31.99,-127.71 9.87,-42.33 19.28,-83.49 28.22,-123.47 9.17,-39.98 17.4,-76.91 24.93,-110.77l218.72 0c-20.7,73.37 -42.33,146.05 -64.44,218.01 -22.11,71.97 -43.74,140.17 -65.15,204.61 -21.16,64.44 -41.86,123.95 -62.09,178.51 -20.46,54.56 -39.04,101.6 -55.97,141.11l-163.69 0c-23.52,-71.5 -46.56,-142.52 -69.14,-213.08 -22.58,-70.55 -43.28,-141.58 -62.09,-213.08zm881.24 279.4c20.7,0 40.45,-0.47 59.27,-1.41 18.81,-0.94 33.86,-2.35 45.15,-4.23l0 -159.46c-8.46,-1.88 -21.16,-3.76 -38.1,-5.64 -16.93,-1.88 -32.45,-2.82 -46.56,-2.82 -19.76,0 -38.34,1.17 -55.74,3.53 -17.41,2.35 -32.69,6.82 -45.86,13.4 -13.17,6.59 -23.52,15.52 -31.05,26.81 -7.52,11.29 -11.29,25.4 -11.29,42.34 0,32.92 11.06,55.73 33.16,68.43 22.11,12.7 52.45,19.05 91.02,19.05zm-16.93 -615.24c62.09,0 113.83,7.06 155.22,21.17 41.39,14.11 74.55,34.33 99.48,60.67 24.93,26.35 42.57,58.33 52.92,95.96 10.35,37.63 15.52,79.49 15.52,125.59l0 437.44c-30.1,6.59 -71.96,14.35 -125.59,23.29 -53.62,8.93 -118.53,13.4 -194.73,13.4 -47.98,0 -91.49,-4.23 -130.53,-12.7 -39.04,-8.46 -72.67,-22.34 -100.89,-41.63 -28.22,-19.28 -49.86,-44.45 -64.91,-75.49 -15.06,-31.04 -22.58,-69.14 -22.58,-114.3 0,-43.27 8.7,-79.96 26.1,-110.07 17.41,-30.1 40.69,-54.09 69.85,-71.96 29.17,-17.88 62.56,-30.81 100.19,-38.81 37.63,-7.99 76.67,-11.99 117.13,-11.99 27.28,0 51.5,1.17 72.67,3.52 21.16,2.36 38.33,5.41 51.5,9.18l0 -19.76c0,-35.75 -10.82,-64.44 -32.45,-86.08 -21.64,-21.63 -59.27,-32.45 -112.89,-32.45 -35.75,0 -71.03,2.59 -105.83,7.76 -34.81,5.17 -64.92,12.46 -90.32,21.87l-26.81 -169.33c12.23,-3.76 27.52,-7.76 45.86,-12 18.35,-4.23 38.34,-7.99 59.98,-11.28 21.63,-3.3 44.45,-6.12 68.44,-8.47 23.98,-2.35 48.21,-3.53 72.67,-3.53zm781.74 776.11c-61.15,-0.94 -110.77,-7.52 -148.87,-19.75 -38.1,-12.23 -68.2,-29.4 -90.31,-51.51 -22.11,-22.11 -37.16,-48.92 -45.16,-80.43 -7.99,-31.52 -11.99,-67.03 -11.99,-106.54l0 -817.03 210.25 -33.87 0 808.56c0,18.82 1.41,35.75 4.24,50.8 2.82,15.06 8.23,27.76 16.22,38.1 8,10.35 19.52,18.82 34.58,25.4 15.05,6.59 35.27,10.82 60.67,12.7l-29.63 173.57zm417.69 -14.11c-61.15,-0.94 -110.77,-7.52 -148.87,-19.75 -38.1,-12.23 -68.2,-29.4 -90.31,-51.51 -22.11,-22.11 -37.16,-48.92 -45.16,-80.43 -7.99,-31.52 -11.99,-67.03 -11.99,-106.54l0 -817.03 210.25 -33.87 0 808.56c0,18.82 1.41,35.75 4.24,50.8 2.82,15.06 8.23,27.76 16.22,38.1 8,10.35 19.52,18.82 34.58,25.4 15.05,6.59 35.27,10.82 60.67,12.7l-29.63 173.57z"/>
  <path class="fil1" d="M585.69 130.17c165.82,-0.9 315.23,14.12 419.34,93.54 107.79,82.23 170.35,215.1 169.42,360.97 12.96,145.75 -20.75,282.37 -118.81,373.75 -103.63,96.58 -270.92,145.54 -453.3,142.9 -182.38,1.59 -349.73,-49.51 -461.76,-144.81 -108.21,-92.05 -158.19,-226.51 -151.32,-371.21 0,-144.49 64.55,-276.39 173.79,-358.43 105.7,-79.39 256.82,-95.81 422.64,-96.71z"/>
  <path class="fil2" d="M126.49 616.61l268.55 111.69 -19.67 58.9 -326.8 -139.99 0 -61.2 326.8 -139.99 19.67 58.9 -268.55 111.69zm362.34 370.25l-71.86 0 256.45 -740.51 70.36 0 -254.95 740.51zm276.88 -481.94l19.67 -58.9 326.8 139.99 0 61.2 -326.8 139.99 -19.67 -58.9 268.56 -111.69 -268.56 -111.69z"/>
 </g>
</svg>
